<?xml version="1.0" encoding="utf-8"?>
<!-- Generator: Adobe Illustrator 19.0.0, SVG Export Plug-In . SVG Version: 6.00 Build 0)  -->
<svg version="1.1" id="Layer_1" xmlns="http://www.w3.org/2000/svg" xmlns:xlink="http://www.w3.org/1999/xlink" x="0px" y="0px"
	 viewBox="-284 391.466 41.885 16.938" style="enable-background:new -284 391.466 41.885 16.938;" xml:space="preserve">
<style type="text/css">
	.st0{fill:#FFFFFF;}
</style>
<g>
	<path class="st0" d="M-266.278,396.85c-0.178,0.178-0.268,0.453-0.268,0.814v3.42c0.007,1.005-0.488,1.515-1.458,1.515h-0.007
		c-0.962,0-1.451-0.503-1.458-1.508v-3.412c0-1.083-0.744-1.083-1.268-1.083h-0.07v4.665c0.007,0.814,0.298,1.486,0.842,1.934
		c0.496,0.403,1.182,0.616,1.961,0.616h0.007c0.786,0,1.48-0.22,1.969-0.623c0.546-0.446,0.829-1.119,0.829-1.934v-4.652h-0.142
		C-265.606,396.602-266.017,396.595-266.278,396.85z"/>
	<path class="st0" d="M-259.97,396.963c-0.007-0.063,0-0.142,0-0.205c0-0.092,0-0.135,0-0.155l-0.007-0.063h-0.063
		c-1.331-0.07-2.137,0.213-2.57,0.907c-0.043-0.326-0.155-0.546-0.361-0.679c-0.233-0.148-0.559-0.163-0.871-0.163h-0.07v7.037
		h1.323v-3.59c0-1.38,0.623-2.174,1.763-2.23C-260.26,397.792-259.977,397.501-259.97,396.963z"/>
	<path class="st0" d="M-273.117,394.415c-0.191,0.17-0.283,0.418-0.283,0.729v2.35c-0.559-0.559-1.423-0.885-2.357-0.885h-0.007
		c-0.97,0-1.869,0.368-2.535,1.034c-0.672,0.672-1.034,1.593-1.034,2.591c0,0.998,0.376,1.919,1.047,2.585
		c0.666,0.659,1.565,1.02,2.528,1.02h0.007c0.885,0,1.706-0.326,2.35-0.914v0.709h1.31v-9.472l-0.063-0.007
		C-272.183,394.152-272.756,394.089-273.117,394.415z M-275.702,402.614c-0.623,0-1.197-0.248-1.636-0.694
		c-0.439-0.453-0.679-1.047-0.679-1.686c0-1.317,1.034-2.393,2.308-2.393h0.007c1.338,0,2.308,1.005,2.315,2.385
		C-273.393,401.672-274.3,402.614-275.702,402.614z"/>
	<path class="st0" d="M-256.628,396.567h-0.007c-2.039,0.007-3.575,1.565-3.568,3.625c0,1.005,0.368,1.919,1.034,2.578
		c0.659,0.651,1.558,1.012,2.548,1.012h0.007c1.493,0,2.796-0.892,3.32-2.265l0.015-0.035h-1.38
		c-0.453,0.729-1.112,1.112-1.934,1.112c-1.097,0-2.011-0.751-2.252-1.841l4.361-0.007c0.574,0,0.877-0.255,1.04-0.461
		c0.241-0.318,0.305-0.779,0.178-1.232C-253.712,397.523-255,396.567-256.628,396.567z M-254.582,399.513
		c-0.043,0.057-0.12,0.085-0.233,0.085l-4.028,0.007c0.255-1.069,1.155-1.812,2.23-1.819c0.992,0,1.819,0.588,2.06,1.458
		C-254.526,399.35-254.533,399.448-254.582,399.513z"/>
	<path class="st0" d="M-250.696,391.484h-24.723c-4.665,0-8.581,3.795-8.581,8.46s3.915,8.46,8.581,8.46h24.723
		c4.665,0,8.581-3.795,8.581-8.46S-246.03,391.484-250.696,391.484z M-245.846,405.155l-3.469-5.041l2.457-3.519h-0.942
		c-0.439,0-0.729,0.155-0.962,0.516c-0.078,0.113-1.055,1.565-1.295,1.926c-0.226-0.34-1.133-1.664-1.345-1.969
		c-0.22-0.318-0.546-0.474-0.962-0.474h-0.015h-0.934l2.506,3.519l-2.393,3.519h1.529l1.608-2.422
		c0.346,0.503,2.074,3.037,3.222,4.715c-1.112,0.722-2.435,1.147-3.851,1.147h-24.723c-3.923,0-7.13-3.207-7.13-7.13
		c0-3.923,3.207-7.13,7.13-7.13h24.723c3.923,0,7.13,3.207,7.13,7.13C-243.566,401.998-244.443,403.852-245.846,405.155z"/>
</g>
</svg>
