<?xml version="1.0" encoding="utf-8"?>
<!-- Generator: Adobe Illustrator 19.0.0, SVG Export Plug-In . SVG Version: 6.00 Build 0)  -->
<svg version="1.1" id="Layer_1" xmlns="http://www.w3.org/2000/svg" xmlns:xlink="http://www.w3.org/1999/xlink" x="0px" y="0px"
	 viewBox="-284 391.466 41.885 11.534" style="enable-background:new -284 391.466 41.885 11.534;" xml:space="preserve">
<style type="text/css">
	.st0{fill:#FFFFFF;}
</style>
<g>
	<path class="st0" d="M-271.919,395.142c-0.121,0.121-0.183,0.309-0.183,0.555v2.331c0.005,0.685-0.333,1.033-0.994,1.033h-0.005
		c-0.656,0-0.989-0.343-0.994-1.028v-2.326c0-0.738-0.507-0.738-0.864-0.738h-0.048v3.18c0.005,0.555,0.203,1.013,0.574,1.318
		c0.338,0.275,0.806,0.42,1.337,0.42h0.005c0.536,0,1.009-0.15,1.342-0.425c0.372-0.304,0.565-0.763,0.565-1.318v-3.171h-0.097
		C-271.461,394.973-271.741,394.968-271.919,395.142z"/>
	<path class="st0" d="M-267.619,395.219c-0.005-0.043,0-0.097,0-0.14c0-0.063,0-0.092,0-0.106l-0.005-0.043h-0.043
		c-0.907-0.048-1.457,0.145-1.752,0.618c-0.029-0.222-0.106-0.372-0.246-0.463c-0.159-0.101-0.381-0.111-0.594-0.111h-0.048v4.797
		h0.902v-2.447c0-0.941,0.425-1.482,1.202-1.52C-267.817,395.784-267.624,395.586-267.619,395.219z"/>
	<path class="st0" d="M-276.581,393.482c-0.13,0.116-0.193,0.285-0.193,0.497v1.602c-0.381-0.381-0.97-0.603-1.607-0.603h-0.005
		c-0.661,0-1.274,0.251-1.728,0.705c-0.458,0.458-0.705,1.086-0.705,1.766s0.256,1.308,0.714,1.762
		c0.454,0.449,1.067,0.695,1.723,0.695h0.005c0.603,0,1.163-0.222,1.602-0.623v0.483h0.893v-6.457l-0.043-0.005
		C-275.944,393.303-276.335,393.26-276.581,393.482z M-278.343,399.071c-0.425,0-0.816-0.169-1.115-0.473
		c-0.299-0.309-0.463-0.714-0.463-1.149c0-0.898,0.705-1.631,1.573-1.631h0.005c0.912,0,1.573,0.685,1.578,1.626
		C-276.769,398.429-277.387,399.071-278.343,399.071z"/>
	<path class="st0" d="M-265.341,394.949h-0.005c-1.39,0.005-2.437,1.067-2.432,2.471c0,0.685,0.251,1.308,0.705,1.757
		c0.449,0.444,1.062,0.69,1.737,0.69h0.005c1.018,0,1.906-0.608,2.263-1.544l0.01-0.024H-264c-0.309,0.497-0.758,0.758-1.318,0.758
		c-0.748,0-1.371-0.512-1.535-1.255l2.973-0.005c0.391,0,0.598-0.174,0.709-0.314c0.164-0.217,0.208-0.531,0.121-0.84
		C-263.353,395.601-264.231,394.949-265.341,394.949z M-263.946,396.957c-0.029,0.039-0.082,0.058-0.159,0.058l-2.746,0.005
		c0.174-0.729,0.787-1.235,1.52-1.24c0.676,0,1.24,0.401,1.404,0.994C-263.908,396.846-263.913,396.913-263.946,396.957z"/>
	<path class="st0" d="M-261.297,391.484h-16.853c-3.18,0-5.849,2.587-5.849,5.767s2.669,5.767,5.849,5.767h16.853
		c3.18,0,5.849-2.587,5.849-5.767S-258.117,391.484-261.297,391.484z M-257.991,400.803l-2.365-3.436l1.675-2.399h-0.642
		c-0.299,0-0.497,0.106-0.656,0.352c-0.053,0.077-0.719,1.067-0.883,1.313c-0.154-0.232-0.772-1.134-0.917-1.342
		c-0.15-0.217-0.372-0.323-0.656-0.323h-0.01h-0.637l1.708,2.399l-1.631,2.399h1.042l1.096-1.651
		c0.236,0.343,1.414,2.07,2.196,3.214c-0.758,0.492-1.66,0.782-2.625,0.782h-16.853c-2.674,0-4.86-2.186-4.86-4.86
		s2.186-4.86,4.86-4.86h16.853c2.674,0,4.86,2.186,4.86,4.86C-256.437,398.651-257.035,399.915-257.991,400.803z"/>
	<path class="st0" d="M-248.637,395.496c-0.497-0.645-1.163-0.967-1.995-0.967c-0.809,0-1.455,0.315-1.937,0.944
		c-0.381,0.495-0.571,1.058-0.571,1.691c0,0.672,0.225,1.274,0.674,1.808c0.45,0.533,1.073,0.799,1.87,0.799
		c0.359,0,0.682-0.056,0.966-0.167c0.285-0.112,0.541-0.274,0.769-0.488c0.228-0.214,0.428-0.495,0.602-0.843l-0.53-0.284
		c-0.192,0.326-0.37,0.561-0.535,0.707c-0.165,0.146-0.365,0.263-0.6,0.351s-0.477,0.132-0.726,0.132
		c-0.516,0-0.949-0.185-1.299-0.555c-0.351-0.37-0.532-0.845-0.544-1.424h4.396C-248.104,396.519-248.284,395.951-248.637,395.496z
		 M-252.431,396.646c0.129-0.458,0.319-0.802,0.571-1.031c0.345-0.314,0.757-0.472,1.236-0.472c0.291,0,0.568,0.063,0.832,0.188
		s0.476,0.29,0.636,0.495s0.283,0.478,0.366,0.82H-252.431z"/>
	<path class="st0" d="M-242.734,392.733v2.841c-0.245-0.348-0.531-0.609-0.855-0.784c-0.325-0.174-0.688-0.261-1.089-0.261
		c-0.695,0-1.289,0.255-1.783,0.765s-0.741,1.124-0.741,1.842c0,0.733,0.245,1.356,0.734,1.867c0.489,0.512,1.08,0.768,1.771,0.768
		c0.389,0,0.748-0.082,1.075-0.247c0.328-0.165,0.623-0.411,0.887-0.738v0.857h0.62v-6.91L-242.734,392.733L-242.734,392.733z
		 M-242.942,398.195c-0.166,0.302-0.403,0.541-0.711,0.719c-0.308,0.177-0.634,0.266-0.978,0.266c-0.341,0-0.66-0.089-0.958-0.268
		c-0.298-0.178-0.535-0.428-0.711-0.748c-0.176-0.32-0.265-0.656-0.265-1.007c0-0.354,0.087-0.69,0.262-1.007
		c0.175-0.317,0.41-0.564,0.707-0.739c0.296-0.175,0.619-0.263,0.969-0.263c0.544,0,1.002,0.194,1.375,0.581
		c0.372,0.387,0.558,0.87,0.558,1.446C-242.693,397.553-242.776,397.893-242.942,398.195z"/>
</g>
</svg>
