<?xml version="1.0" encoding="utf-8"?>
<!-- Generator: Adobe Illustrator 19.0.0, SVG Export Plug-In . SVG Version: 6.00 Build 0)  -->
<svg version="1.1" id="Layer_1" xmlns="http://www.w3.org/2000/svg" xmlns:xlink="http://www.w3.org/1999/xlink" x="0px" y="0px"
	 viewBox="-280 382.191 29.109 29.108" style="enable-background:new -280 382.191 29.109 29.108;" xml:space="preserve">
<style type="text/css">
	.st0{fill:#10A39C;}
</style>
<path class="st0" d="M-265.446,382.191c-8.025,0-14.554,6.529-14.554,14.554c0,8.025,6.529,14.554,14.554,14.554
	c2.329,0,4.645-0.564,6.698-1.63c0.481-0.25,0.67-0.844,0.419-1.325c-0.25-0.481-0.843-0.668-1.325-0.419
	c-1.8,0.934-3.749,1.409-5.793,1.409c-6.941,0-12.589-5.648-12.589-12.589s5.648-12.588,12.589-12.588
	c6.941,0,12.589,5.647,12.589,12.588c0,1.741-0.348,3.426-1.044,5.028c-0.009,0.022-0.907,2.162-2.807,2.162
	c-0.887,0-1.087-0.516-1.1-0.937v-6.253c0-4.211-3.426-7.638-7.638-7.638c-4.211,0-7.638,3.426-7.638,7.638
	c0,4.211,3.427,7.638,7.638,7.638c2.252,0,4.273-0.986,5.673-2.541v1.154c-0.001,0.124,0.02,1.237,0.85,2.069
	c0.381,0.381,1.074,0.836,2.215,0.836c3.205,0,4.57-3.245,4.618-3.364c0.795-1.831,1.199-3.779,1.199-5.791
	C-250.891,388.72-257.42,382.191-265.446,382.191z M-265.446,402.417c-3.128,0-5.672-2.545-5.672-5.673
	c0-3.127,2.545-5.672,5.672-5.672c3.127,0,5.673,2.545,5.673,5.672C-259.773,399.873-262.318,402.417-265.446,402.417z"/>
</svg>
