<?xml version="1.0" encoding="utf-8"?>
<!-- Generator: Adobe Illustrator 19.0.0, SVG Export Plug-In . SVG Version: 6.00 Build 0)  -->
<svg version="1.1" id="Layer_1" xmlns="http://www.w3.org/2000/svg" xmlns:xlink="http://www.w3.org/1999/xlink" x="0px" y="0px"
	 viewBox="-290 382.9 29.2 29.1" style="enable-background:new -290 382.9 29.2 29.1;" xml:space="preserve">
<style type="text/css">
	.st0{fill:#FFFFFF;}
</style>
<path class="st0" d="M-261.5,392.7l-9.2-9.2c-0.9-0.9-2.2-0.9-3.1,0l-15.6,15.6c-0.9,0.9-0.9,2.2,0,3.1l9.2,9.2
	c0.9,0.9,2.2,0.9,3.1,0l15.6-15.6C-260.7,394.9-260.7,393.6-261.5,392.7z M-262.8,395.2c-0.1,0.1-0.3,0.2-0.5,0.2l-9,0l-0.1,1.6
	c0,0.6-0.1,2-0.8,2.6c-0.6,0.6-2,0.7-2.6,0.8l-1.6,0.1l0,9c0,0.2-0.1,0.4-0.2,0.5c-0.1,0.1-0.3,0.2-0.5,0.2c-0.4,0-0.7-0.3-0.7-0.7
	l0-9l-8.5,0.4c-0.2,0-0.4-0.1-0.5-0.2c-0.1-0.1-0.2-0.3-0.2-0.5c0-0.2,0.1-0.4,0.2-0.5c0.1-0.1,0.3-0.2,0.5-0.2l11.6-0.6
	c0.8,0,1.5-0.2,1.6-0.3c0.1-0.1,0.3-0.9,0.3-1.6l0.6-11.6c0-0.2,0.1-0.4,0.2-0.5c0.1-0.1,0.4-0.2,0.5-0.2c0.2,0,0.4,0.1,0.5,0.2
	c0.1,0.1,0.2,0.3,0.2,0.5l-0.4,8.5l9,0c0.4,0,0.7,0.3,0.7,0.7C-262.6,394.8-262.7,395-262.8,395.2z"/>
</svg>
