<?xml version="1.0" encoding="utf-8"?>
<!-- Generator: Adobe Illustrator 19.0.0, SVG Export Plug-In . SVG Version: 6.00 Build 0)  -->
<svg version="1.1" id="Layer_1" xmlns="http://www.w3.org/2000/svg" xmlns:xlink="http://www.w3.org/1999/xlink" x="0px" y="0px"
	 viewBox="-280 372 50 50" style="enable-background:new -280 372 50 50;" xml:space="preserve">
<style type="text/css">
	.st0{fill:#21303D;}
</style>
<g>
	<path class="st0" d="M-233,378.8h-44c-1.6,0-3,1.3-3,3s1.3,3,3,3h28.1h15.9h3v-3C-230,380.1-231.3,378.8-233,378.8z"/>
	<path class="st0" d="M-248.9,409.3H-267c-1.6,0-3,1.3-3,3s1.3,3,3,3h34c1.6,0,3-1.3,3-3v-3h-3H-248.9z"/>
	<path class="st0" d="M-248.9,394H-277c-1.6,0-3,1.3-3,3s1.3,3,3,3h28.1h15.9h3v-6h-3H-248.9z"/>
</g>
</svg>
