<svg width="225" height="104" viewBox="0 0 225 104" fill="none" xmlns="http://www.w3.org/2000/svg">
<g clip-path="url(#clip0_490_60976)">
<mask id="mask0_490_60976" style="mask-type:luminance" maskUnits="userSpaceOnUse" x="0" y="9" width="225" height="91">
<path d="M224.6 9.30078H0V99.3008H224.6V9.30078Z" fill="white"/>
</mask>
<g mask="url(#mask0_490_60976)">
<path d="M85.8006 9.30078H73.7006C73.2006 9.30078 72.6006 9.80079 72.6006 10.4008V98.3008C72.6006 98.8008 73.1006 99.4008 73.7006 99.4008H85.8006C86.3006 99.4008 86.9006 98.9008 86.9006 98.3008V10.4008C86.8006 9.80079 86.4006 9.30078 85.8006 9.30078Z" fill="#362E77"/>
<path d="M13.3002 9.30078H1.30019C0.800194 9.30078 0.200195 9.80079 0.200195 10.4008V98.3008C0.200195 98.8008 0.700194 99.4008 1.30019 99.4008H13.4002C13.9002 99.4008 14.5002 98.9008 14.5002 98.3008V10.4008C14.7002 9.80079 14.2002 9.30078 13.3002 9.30078Z" fill="#362E77"/>
<path d="M140.7 32.4008C140.2 32.4008 139.6 32.9008 139.6 33.5008V67.1008C139.6 72.4008 139.3 85.2008 126.7 85.2008H124.4C111.5 85.2008 111.8 72.3008 111.8 67.1008V33.5008C111.8 33.0008 111.3 32.4008 110.7 32.4008H98.1C97.6 32.4008 97 32.9008 97 33.5008V66.0008C97 76.0008 98.6 99.3008 123.8 99.3008H127.5C152.7 99.3008 154.3 75.7008 154.3 66.3008V33.4008C154.3 32.9008 153.8 32.3008 153.2 32.3008L140.7 32.4008Z" fill="#362E77"/>
<path d="M16.3002 63.4008C16.0002 62.9008 16.0002 62.3008 16.3002 61.8008L47.5002 32.6008C47.8002 32.3008 48.0002 32.3008 48.2002 32.3008H63.1002C64.2002 32.3008 64.7002 33.7008 63.8002 34.1008L35.0002 62.3008C34.5002 62.8008 34.5002 63.4008 35.0002 63.9008L62.5002 97.5008C63.0002 98.2008 62.5002 99.3008 61.8002 99.3008H45.8002C45.5002 99.3008 45.1002 99.0008 45.1002 98.8008L24.8002 73.3008L16.3002 63.4008Z" fill="#362E77"/>
<path d="M162.7 65.7016C162.7 61.3016 163.2 57.1015 164.8 52.8015C166.4 48.6015 168.8 44.9015 171.6 41.8015C174.5 38.7015 178.2 36.3016 181.9 34.4016C185.9 32.8016 190 32.1016 194.2 32.1016C212.8 32.1016 224.7 46.3015 224.7 67.3015V69.9016C224.7 70.4016 224.2 71.0016 223.6 71.0016H180.8C180.1 71.0016 179.4 71.5016 179.7 72.4016C180.4 76.1016 181.8 79.2016 184.6 81.6016C187.8 84.2016 192.5 85.6016 196.9 85.6016C202.4 85.6016 207.9 83.8015 212.4 80.3015C212.9 80.0015 213.5 80.0015 214 80.3015L221.7 88.0016C222.2 88.5016 222.2 89.3016 221.7 89.6016C211.7 98.0016 204.4 99.3015 195.4 99.3015C190.7 99.3015 186.8 98.8016 182.8 97.2016C178.8 95.7016 175.2 93.2016 172.1 90.2016C169 87.0016 166.6 83.4016 165.1 79.2016C163.2 74.6016 162.7 70.4016 162.7 65.7016ZM194.2 45.8015C190.5 45.8015 186.8 47.2015 183.9 49.8015C181.3 52.1015 179.7 54.8016 179.2 57.9016C179.2 58.4016 179.7 59.3015 180.3 59.3015H207.8C208.3 59.3015 208.9 58.8016 208.9 57.9016C208.6 56.5016 208.4 55.6016 207.5 54.2016C206.8 52.4016 205.7 50.8016 204.1 49.5016C202.7 48.2016 201 47.2016 199.4 46.6016C197.9 45.8016 196 45.5015 194.2 45.8015Z" fill="#362E77"/>
</g>
</g>
<defs>
<clipPath id="clip0_490_60976">
<rect width="224.6" height="103.2" fill="white"/>
</clipPath>
</defs>
</svg>
