<?xml version="1.0" encoding="utf-8"?>
<!-- Generator: Adobe Illustrator 19.0.0, SVG Export Plug-In . SVG Version: 6.00 Build 0)  -->
<svg version="1.1" id="Layer_1" xmlns="http://www.w3.org/2000/svg" xmlns:xlink="http://www.w3.org/1999/xlink" x="0px" y="0px"
	 viewBox="20 347 520.4 103.2" style="enable-background:new 20 347 520.4 103.2;" xml:space="preserve">
<style type="text/css">
	.st0{fill:#29C1DB;}
	.st1{fill:#EB7B38;}
	.st2{fill:#00B2AD;}
</style>
<g>
	<path d="M198.6,366.9v14.4h6.7c3.3,0,5.9-2.8,5.9-7.2c0-4.5-2.6-7.3-5.9-7.3h-6.7V366.9z M186.1,356.3h22c8.4,0,15.8,5.7,15.8,17.9
		c0,11.1-7.3,17.7-15.8,17.7h-9.5v12.7h-12.5V356.3z"/>
	<path d="M243.4,366.9v11.7h6.5c3.5,0,5.6-2.4,5.6-5.8c0-3.6-2.1-5.8-5.6-5.8h-6.5V366.9z M230.9,356.3h22.3
		c9.3,0,15.1,6.8,15.1,15.9c0,6.8-4,11.9-9.5,14.1l11.2,16v2.4h-12.6l-11.2-17.1h-2.8v17.1h-12.5V356.3z"/>
	<polygon points="277,404.6 277,356.3 311.5,356.3 311.5,366.9 288.9,366.9 288.9,375 307,375 307,385.1 288.9,385.1 288.9,394 
		311.5,394 311.5,404.6 	"/>
	<path d="M339,355.5c7,0,13,3.2,16.8,7.3l-5.6,8.5c-2.8-2.6-5.5-4.6-9.7-4.6c-6.6,0-10.8,4.5-10.8,13.7s4.2,13.7,10.8,13.7
		c4.1,0,6.9-2,9.7-4.6l5.6,8.5c-3.8,4.1-9.8,7.3-16.8,7.3c-12.4,0-22-9.3-22-24.9C317,364.9,326.6,355.5,339,355.5"/>
	<rect x="363.1" y="356.3" width="12.5" height="48.4"/>
	<path d="M386.3,390.7c3.3,2.3,8.1,4.1,12.1,4.1c3.4,0,6.2-1.5,6.2-4.5c0-1.9-1-3.3-4.3-4.4l-6-2.1c-7.1-2.3-10.4-6.3-10.4-13.2
		c0-8.1,6.2-14.9,17.6-14.9c5.6,0,11.6,1.6,14.9,3.4l-3.4,10.2c-3.2-1.9-7.4-3.2-11.1-3.2c-3.7,0-5.7,1.6-5.7,4c0,2.1,1.2,3.1,3.9,4
		l6,2.1c8.1,2.7,11.4,7.2,11.4,13.6c0,9-7.1,15.7-18.4,15.7c-6,0-12.5-2-15.6-3.7L386.3,390.7z"/>
	<rect x="425.4" y="356.3" width="12.5" height="48.4"/>
	<path d="M467.5,393.9c5.7,0,9.6-4.2,9.6-13.4c0-9.3-3.9-13.5-9.6-13.5c-5.6,0-9.4,4.2-9.4,13.5
		C458.1,389.7,461.9,393.9,467.5,393.9 M467.5,355.5c13.5,0,21.7,10.5,21.7,25c0,14.4-8.2,24.8-21.7,24.8
		c-13.4,0-21.5-10.5-21.5-24.8C446,366,454.1,355.5,467.5,355.5"/>
	<polygon points="509.8,376.8 509.8,404.6 497.4,404.6 497.4,356.3 508.1,356.3 526.6,384.2 526.6,356.3 539.2,356.3 539.2,404.6 
		528.3,404.6 	"/>
	<polygon points="193.5,422.5 193.5,446.3 186.8,446.3 186.8,411.5 192.7,411.5 209.1,435.3 209.1,411.5 215.9,411.5 215.9,446.3 
		210,446.3 	"/>
	<path d="M231.4,434.2h10.1l-5-16.2L231.4,434.2z M232.7,411.5h7.7l11.6,34.8h-6.6l-2.2-7.2h-13.5l-2.3,7.2h-6.6L232.7,411.5z"/>
	<polygon points="263.8,422.5 263.8,446.3 257.1,446.3 257.1,411.5 262.9,411.5 279.4,435.3 279.4,411.5 286.2,411.5 286.2,446.3 
		280.3,446.3 	"/>
	<path d="M308.3,440.6c5.3,0,9.1-3.8,9.1-11.7c0-8-3.7-11.8-9.1-11.8c-5.3,0-8.9,3.8-8.9,11.8C299.4,436.8,303,440.6,308.3,440.6
		 M308.3,411c9.5,0,15.6,7.4,15.6,18c0,10.5-6.1,17.9-15.6,17.9c-9.4,0-15.5-7.4-15.5-17.9C292.8,418.3,298.9,411,308.3,411"/>
	<path d="M330,437.8c2.2,1.5,6.1,3,9.5,3c3.2,0,6.1-1.5,6.1-4.5c0-1.9-1.1-3.4-4.1-4.3l-5-1.5c-5.1-1.5-7.6-4.3-7.6-9.3
		c0-5.2,4.1-10.2,12.1-10.2c4.1,0,8.3,1.2,10.7,2.5l-1.9,5.7c-2.2-1.3-5.7-2.3-8.5-2.3c-3.8,0-5.8,1.6-5.8,4c0,2.1,1.3,3.1,3.7,3.9
		l4.9,1.5c5.8,1.8,8.3,4.9,8.3,9.6c0,6.2-5.1,10.9-12.7,10.9c-4.4,0-9.1-1.5-11.2-2.8L330,437.8z"/>
	<polygon points="366.6,432.4 354.8,411.9 354.8,411.5 362.2,411.5 369.9,426.3 377.6,411.5 384.9,411.5 384.9,411.9 373.1,432.3 
		373.1,446.3 366.6,446.3 	"/>
	<path d="M388.3,437.8c2.2,1.5,6.1,3,9.5,3c3.2,0,6.1-1.5,6.1-4.5c0-1.9-1.1-3.4-4.1-4.3l-5-1.5c-5.1-1.5-7.6-4.3-7.6-9.3
		c0-5.2,4.1-10.2,12.1-10.2c4.1,0,8.3,1.2,10.7,2.5l-1.9,5.7c-2.3-1.3-5.7-2.3-8.5-2.3c-3.8,0-5.8,1.6-5.8,4c0,2.1,1.3,3.1,3.7,3.9
		l4.9,1.5c5.8,1.8,8.3,4.9,8.3,9.6c0,6.2-5.1,10.9-12.7,10.9c-4.4,0-9.1-1.5-11.2-2.8L388.3,437.8z"/>
	<polygon points="430.3,417.3 430.3,446.3 423.6,446.3 423.6,417.3 414,417.3 414,411.5 439.8,411.5 439.8,417.3 	"/>
	<polygon points="445.1,446.3 445.1,411.5 469.2,411.5 469.2,417.3 451.5,417.3 451.5,425.6 466,425.6 466,431.2 451.5,431.2 
		451.5,440.6 469.2,440.6 469.2,446.3 	"/>
	<polygon points="503.5,422.4 493.7,436.5 492.5,436.5 482.7,422.4 482.7,446.3 476,446.3 476,411.5 482.5,411.5 493.1,426.7 
		503.7,411.5 510.2,411.5 510.2,446.3 503.5,446.3 	"/>
	<path d="M518.1,437.8c2.3,1.5,6.1,3,9.5,3c3.2,0,6.1-1.5,6.1-4.5c0-1.9-1.1-3.4-4.1-4.3l-5-1.5c-5.1-1.5-7.6-4.3-7.6-9.3
		c0-5.2,4-10.2,12-10.2c4.1,0,8.3,1.2,10.7,2.5l-1.9,5.7c-2.3-1.3-5.7-2.3-8.5-2.3c-3.8,0-5.8,1.6-5.8,4c0,2.1,1.3,3.1,3.7,3.9
		l4.9,1.5c5.8,1.8,8.3,4.9,8.3,9.6c0,6.2-5.1,10.9-12.7,10.9c-4.4,0-9-1.5-11.2-2.8L518.1,437.8z"/>
	<path class="st0" d="M56.7,371.8l22.4,28.1c2.8,4.1,7.7,6.8,13.1,6.8h30.5c8.7,0,15.8-6.9,15.8-15.4s-6.4-15.5-15.1-15.5H111
		l-0.7,0.1h-2.6c-5.5,0-10.3-2.7-13.1-6.8l-1-1.3l0,0L81.7,353c-5.3-6.7-15.3-8-22.2-2.8C52.6,355.4,51.3,365,56.7,371.8"/>
	<path class="st1" d="M83.4,422.1l-33.1-41.3v0.1l-1.9-2.5c-5.3-6.8-15.3-8-22.2-2.8s-8.2,14.9-2.9,21.7l33.1,41.3v-0.1l1.9,2.5
		c5.3,6.7,15.3,8,22.2,2.8C87.5,438.6,88.8,428.9,83.4,422.1"/>
	<path class="st2" d="M158.2,431.6c0-8.5-7.1-15.4-15.8-15.4h-20.9H120h-9.4c-8.8,0-15.8,6.9-15.8,15.4s7.1,15.4,15.8,15.4h9.4h1.5
		h20.9C151.1,447,158.2,440.1,158.2,431.6"/>
</g>
</svg>
