<?xml version="1.0" encoding="utf-8"?>
<!-- Generator: Adobe Illustrator 19.0.0, SVG Export Plug-In . SVG Version: 6.00 Build 0)  -->
<svg version="1.1" id="Layer_1" xmlns="http://www.w3.org/2000/svg" xmlns:xlink="http://www.w3.org/1999/xlink" x="0px" y="0px"
	 viewBox="20 347 629.7 103.2" style="enable-background:new 20 347 629.7 103.2;" xml:space="preserve">
<style type="text/css">
	.st0{fill:#1428A0;}
	.st1{clip-path:url(#SVGID_2_);}
</style>
<g>
	<path class="st0" d="M61.8,421.1c0.9,2.2,0.6,4.9,0.2,6.7c-0.8,3-2.8,6.1-8.8,6.1c-5.6,0-9.1-3.3-9.1-8.1V417H20v7
		c0,20.1,15.7,26.2,32.7,26.2c16.3,0,29.6-5.5,31.8-20.6c1.1-7.8,0.3-12.8-0.1-14.8c-3.8-18.8-38-24.4-40.6-35.1
		c-0.4-1.5-0.4-3.2-0.1-4.7c0.7-2.9,2.6-6.1,8.2-6.1c5.3,0,8.3,3.3,8.3,8.1v5.6h22.5v-6.4c0-19.6-17.6-22.7-30.3-22.7
		c-16,0-29.1,5.3-31.5,20c-0.7,4.1-0.8,7.6,0.2,12.2C25.2,404.1,57.2,409.4,61.8,421.1z"/>
	<path class="st0" d="M116.4,356.5l-16.7,90H124l12.4-81.7h0.5l12,81.7h24.2l-16.6-90H116.4z M252.3,356.5l-11.1,68.9h-0.5
		l-11.1-68.9H193l-2,90h22.5l0.6-80.9h0.5l15.1,80.9h22.9l15.1-80.9h0.5l0.6,80.9h22.5l-2-90H252.3z"/>
	<path class="st0" d="M354.5,420.9c0.9,2.2,0.6,4.9,0.2,6.7c-0.8,3-2.8,6.1-8.8,6.1c-5.6,0-9.1-3.3-9.1-8.1v-8.7h-24.1v7
		c0,20.1,15.7,26.2,32.7,26.2c16.3,0,29.6-5.5,31.8-20.6c1.1-7.8,0.3-12.8-0.1-14.8c-3.8-18.8-38-24.4-40.6-35.1
		c-0.4-1.5-0.4-3.2-0.1-4.7c0.7-2.9,2.6-6.1,8.2-6.1c5.3,0,8.3,3.3,8.3,8.1v5.6h22.5v-6.4c0-19.6-17.6-22.7-30.3-22.7
		c-16,0-29.1,5.3-31.5,20c-0.7,4.1-0.8,7.6,0.2,12.2C317.8,403.9,349.8,409.2,354.5,420.9z"/>
	<path class="st0" d="M430,433c6.3,0,8.2-4.3,8.6-6.5c0.2-1,0.2-2.3,0.2-3.5v-66.5h22.8V421c0,1.9-0.1,4-0.2,5.9
		c-1.5,16.8-14.9,22.2-31.4,22.2c-16.6,0-29.8-5.4-31.4-22.2c-0.1-0.9-0.2-4.2-0.2-5.9v-64.5h22.8V423c0,1.2,0,2.5,0.2,3.5
		C421.8,428.6,423.7,433,430,433z M540.1,356.5l1.3,70.7h-0.5l-20.7-70.7h-33.4v89h22.1l-1.3-73.1h0.5l22.2,73.1h32.1v-89H540.1z
		 M617.7,432c6.5,0,8.8-4.2,9.2-6.6c0.2-1,0.2-2.2,0.2-3.4v-13.1h-9.3v-13h31.9V420c0,1.7,0,2.9-0.3,5.9
		c-1.4,16.4-15.7,22.2-31.7,22.2s-30.1-5.9-31.7-22.2c-0.3-3-0.3-4.2-0.3-5.9v-37.9c0-1.6,0.2-4.4,0.4-5.9
		c2-16.8,15.6-22.2,31.6-22.2s29.9,5.4,31.6,22.2c0.3,2.9,0.2,5.9,0.2,5.9v3h-22.7v-5c0,0,0-2.1-0.3-3.4c-0.4-2-2.1-6.6-9-6.6
		c-6.6,0-8.5,4.3-9,6.6c-0.3,1.2-0.4,2.8-0.4,4.2v41.1c0,1.2,0,2.4,0.2,3.4C609,427.9,611.3,432,617.7,432z"/>
</g>
<g>
	<g>
		<g>
			<g>
				<g>
					<defs>
						<rect id="SVGID_1_" x="1419.6" y="356.3" width="224.6" height="90"/>
					</defs>
					<clipPath id="SVGID_2_">
						<use xlink:href="#SVGID_1_"  style="overflow:visible;"/>
					</clipPath>
					<g class="st1">
						<path d="M1505.4,356.3h-12.1c-0.5,0-1.1,0.5-1.1,1.1v87.9c0,0.5,0.5,1.1,1.1,1.1h12.1c0.5,0,1.1-0.5,1.1-1.1v-87.9
							C1506.5,356.8,1506,356.3,1505.4,356.3z"/>
						<path d="M1433,356.3h-12.1c-0.5,0-1.1,0.5-1.1,1.1v87.9c0,0.5,0.5,1.1,1.1,1.1h12.1c0.5,0,1.1-0.5,1.1-1.1v-87.9
							C1434.3,356.8,1433.9,356.3,1433,356.3z"/>
						<path d="M1560.3,379.4c-0.5,0-1.1,0.5-1.1,1.1v33.6c0,5.3-0.3,18.1-12.9,18.1h-2.3c-12.9,0-12.6-12.9-12.6-18.1v-33.6
							c0-0.5-0.5-1.1-1.1-1.1h-12.6c-0.5,0-1.1,0.5-1.1,1.1V413c0,10,1.6,33.3,26.8,33.3h3.7c25.2,0,26.8-23.6,26.8-33v-32.9
							c0-0.5-0.5-1.1-1.1-1.1L1560.3,379.4L1560.3,379.4z"/>
						<path d="M1435.9,410.4c-0.3-0.5-0.3-1.1,0-1.6l31.2-29.2c0.3-0.3,0.5-0.3,0.7-0.3h14.9c1.1,0,1.6,1.4,0.7,1.8l-28.8,28.2
							c-0.5,0.5-0.5,1.1,0,1.6l27.5,33.6c0.5,0.7,0,1.8-0.7,1.8h-16c-0.3,0-0.7-0.3-0.7-0.5l-20.3-25.5l0,0l0,0L1435.9,410.4z"/>
						<path d="M1582.4,412.7c0-4.4,0.5-8.6,2.1-12.9c1.6-4.2,4-7.9,6.8-11c2.9-3.1,6.6-5.5,10.3-7.4c4-1.6,8.1-2.3,12.3-2.3
							c18.6,0,30.5,14.2,30.5,35.2v2.6c0,0.5-0.5,1.1-1.1,1.1h-42.8c-0.7,0-1.3,0.5-1.1,1.4c0.7,3.7,2.1,6.8,5,9.2
							c3.2,2.6,7.9,4,12.3,4c5.5,0,11-1.8,15.5-5.3c0.5-0.3,1.1-0.3,1.6,0l7.7,7.7c0.5,0.5,0.5,1.3,0,1.6c-10,8.4-17.3,9.7-26.3,9.7
							c-4.7,0-8.6-0.5-12.6-2.1c-4-1.5-7.7-4-10.7-7c-3.2-3.2-5.5-6.8-7-11C1582.8,421.6,1582.4,417.4,1582.4,412.7z M1613.9,392.8
							L1613.9,392.8c-3.7,0-7.4,1.4-10.3,4c-2.6,2.3-4.2,5-4.7,8.1c0,0.5,0.5,1.4,1.1,1.4h27.5c0.5,0,1.1-0.5,1.1-1.4
							c-0.3-1.4-0.5-2.3-1.4-3.7c-0.7-1.8-1.8-3.4-3.4-4.7c-1.3-1.3-3.2-2.3-4.7-2.9C1617.5,392.8,1615.7,392.5,1613.9,392.8
							L1613.9,392.8z"/>
					</g>
				</g>
			</g>
		</g>
	</g>
</g>
</svg>
