<?xml version="1.0" encoding="utf-8"?>
<!-- Generator: Adobe Illustrator 19.0.0, SVG Export Plug-In . SVG Version: 6.00 Build 0)  -->
<svg version="1.1" id="Layer_1" xmlns="http://www.w3.org/2000/svg" xmlns:xlink="http://www.w3.org/1999/xlink" x="0px" y="0px"
	 viewBox="-295 382.9 19.3 29.1" style="enable-background:new -295 382.9 19.3 29.1;" xml:space="preserve">
<style type="text/css">
	.st0{fill:#FFFFFF;}
</style>
<path class="st0" d="M-275.8,396.5l-9.1-13.4c-0.1-0.2-0.4-0.2-0.5,0l-9.1,13.4c-0.1,0.1-0.1,0.2,0,0.3s0.2,0.2,0.3,0.2h5.1
	c0.6,10.2-5.7,14.6-5.8,14.6c-0.1,0.1-0.2,0.2-0.1,0.3c0,0.1,0.1,0.2,0.3,0.2c0.3,0,0.7,0,1,0c10.2,0,12.4-11.3,12.8-15.2h4.9
	c0.1,0,0.2-0.1,0.3-0.2C-275.7,396.8-275.7,396.5-275.8,396.5z"/>
</svg>
