<?xml version="1.0" encoding="utf-8"?>
<!-- Generator: Adobe Illustrator 19.0.0, SVG Export Plug-In . SVG Version: 6.00 Build 0)  -->
<svg version="1.1" id="Layer_1" xmlns="http://www.w3.org/2000/svg" xmlns:xlink="http://www.w3.org/1999/xlink" x="0px" y="0px"
	 viewBox="-97 347 431.5 100" style="enable-background:new -97 347 431.5 100;" xml:space="preserve">
<style type="text/css">
	.st0{fill:#087443;}
	.st1{fill:#3538CD;}
	.st2{fill:#010002;}
</style>
<g>
	<path class="st0" d="M-69.8,423.7c-0.4,0-0.9-0.1-1.3-0.2c-1.4-0.6-2.4-1.9-2.4-3.5v-9.8h-6.6c-9.3,0-16.9-7.6-16.9-16.9v-29.3
		c0-9.3,7.6-16.9,16.9-16.9h42.8c9.3,0,16.9,7.6,16.9,16.9v11.3c0,2-1.7,3.7-3.7,3.7s-3.7-1.7-3.7-3.7v-11.3c0-5.3-4.3-9.5-9.5-9.5
		h-42.8c-5.3,0-9.5,4.3-9.5,9.5v29.3c0,5.3,4.3,9.5,9.5,9.5h10.3c2,0,3.7,1.7,3.7,3.7v3.9l5.8-6.4c0.7-0.8,1.7-1.2,2.7-1.2h13.1
		c2,0,3.7,1.7,3.7,3.7s-1.7,3.7-3.7,3.7H-56l-11,12.3C-67.7,423.3-68.7,423.7-69.8,423.7z"/>
	<path class="st1" d="M-34.7,447h-42.8c-9.3,0-16.9-7.6-16.9-16.9v-11.3c0-2,1.7-3.7,3.7-3.7c2,0,3.7,1.7,3.7,3.7v11.3
		c0,5.3,4.3,9.5,9.5,9.5h42.8c5.3,0,9.5-4.3,9.5-9.5v-29.3c0-5.3-4.3-9.5-9.5-9.5H-45c-2,0-3.7-1.7-3.7-3.7v-3.9l-5.8,6.4
		c-0.7,0.8-1.7,1.2-2.7,1.2h-13.1c-2,0-3.7-1.7-3.7-3.7s1.7-3.7,3.7-3.7H-59l11.2-12.3c1-1.1,2.7-1.5,4.1-1c1.4,0.6,2.4,1.9,2.4,3.5
		v9.8h6.6c9.3,0,16.9,7.6,16.9,16.9v29.3C-17.7,439.4-25.3,447-34.7,447z"/>
	<g>
		<polygon class="st2" points="111.2,387.7 104.1,387.7 96,401.4 87.9,387.7 80.5,387.7 91.6,405.6 80.3,423.7 87.7,423.7 96,410.6 
			104.2,423.7 111.5,423.7 100.3,405.8 		"/>
		<path class="st2" d="M128,378.6h-6.6v9h-6.1v6.6h6.1v20.1c0,0.4,0.2,4.4,3.6,7c1.7,1.3,3.9,2,6.5,2c1.4,0,2.8-0.2,4.4-0.6
			l-1.5-6.4c-2.5,0.6-4.4,0.5-5.3-0.2c-0.9-0.6-1-1.8-1-2v-20h8.1v-6.6h-8.1v-8.9H128z"/>
		<path class="st2" d="M161.6,396.1c-5-0.5-8.6-1.9-10.4-4.2c-1.5-2-1.3-4-1.3-4v-0.4c0-0.2,0.5-6.1,10.3-6.1c9.2,0,9.8,5.4,9.9,6.5
			l3.3-0.1h3.3c0-4.5-3.6-12.9-16.5-12.9c-12.7,0-16.6,7.9-16.9,12.2c-0.1,1.1-0.4,5,2.5,8.8c2.9,3.9,8,6.2,15.1,6.9
			c3.9,0.4,6.6,1.5,8,3.4c1.6,2.1,1.4,4.8,1.2,5.9c-0.3,1.6-3,6.2-9.7,6.2c-6.5,0-11.6-3.5-11.6-8h-6.6c0,8.2,8,14.6,18.2,14.6
			c9.9,0,15.4-6.9,16.2-11.7c0.4-2.4,0.5-7-2.5-10.9C171.7,398.7,167.4,396.7,161.6,396.1z"/>
		<polygon class="st2" points="40.6,382.3 56,382.3 56,423.7 62.7,423.7 62.7,382.3 78,382.3 78,375.7 40.6,375.7 		"/>
		<path class="st2" d="M210.3,393.7c-2.7-4.2-6.7-6.8-11.2-6.8c-8,0-14.5,8.3-14.5,18.6s6.5,18.6,14.5,18.6c4.5,0,8.6-2.6,11.2-6.8
			v19.1h6.6v-48.7h-6.6V393.7z M200.6,418.5c-5.3,0-9.6-5.8-9.6-12.9s4.3-12.9,9.6-12.9c5.3,0,9.6,5.8,9.6,12.9
			S205.9,418.5,200.6,418.5z"/>
		<path class="st2" d="M327.9,374.7v19.1c-2.7-4.2-6.7-6.8-11.2-6.8c-8,0-14.5,8.3-14.5,18.6s6.5,18.6,14.5,18.6
			c4.5,0,8.6-2.6,11.2-6.8v6.2h6.6v-48.9L327.9,374.7L327.9,374.7z M318.3,418.5c-5.3,0-9.6-5.8-9.6-12.9s4.3-12.9,9.6-12.9
			s9.6,5.8,9.6,12.9S323.6,418.5,318.3,418.5z"/>
		<path class="st2" d="M249.5,410.2c-0.6,3.2-2.4,7.5-7.9,7.5c-8.7,0-8.5-5.6-8.5-5.6v-24.3h-6.6V412c0,0,0.1,12.2,12.5,12.2
			c5.2,0,8.4-3.6,10.5-7.7v7.2h6.6v-35.9h-6.6V410.2z"/>
		<path class="st2" d="M283.4,387.2c-12-2.1-17.1,4.9-18,8.9l6.4,1.6c0.1-0.2,1.5-5.5,10.5-4c4.3,0.8,4.6,3.3,4.6,3.9v1.4l0,0
			c0,0,0.5,2.9-4.3,3.1c-4.7,0.2-18.1,0.8-18.7,9.6l0.1,0.1l-0.1,0.1c0,0,0.1,12.2,12.5,12.2c5.2,0,8.5-2.5,10.5-5.8v5.3h6.6V398
			C293.6,394.7,291.6,388.6,283.4,387.2z M286.9,410.2c-0.6,3.2-2.4,7.5-7.9,7.5c-3.5,0-5.5-0.8-6.7-1.8l0,0l0,0l0,0
			c-0.4-0.3-3-2.9,0.2-5.8c1-0.8,2.5-1.6,4.8-2.1c4.5-1,7.7-1.2,9.5-2.1L286.9,410.2z"/>
	</g>
</g>
</svg>
