<?xml version="1.0" encoding="utf-8"?>
<!-- Generator: Adobe Illustrator 19.0.0, SVG Export Plug-In . SVG Version: 6.00 Build 0)  -->
<svg version="1.1" id="Layer_1" xmlns="http://www.w3.org/2000/svg" xmlns:xlink="http://www.w3.org/1999/xlink" x="0px" y="0px"
	 viewBox="-228 236.716 42.932 29.284" style="enable-background:new -228 236.716 42.932 29.284;" xml:space="preserve">
<style type="text/css">
	.st0{fill:#FFFFFF;}
	.st1{fill:#616362;}
	.st2{fill:#435D41;}
	.st3{fill:#1F4F31;}
	.st4{fill:#4F8672;}
	.st5{fill:#56935E;}
	.st6{fill:#1B7759;}
	.st7{fill:#164D2D;}
	.st8{fill:#164C2C;}
	.st9{fill:#1F7654;}
	.st10{fill:#5D8947;}
	.st11{fill:#FBB069;}
	.st12{fill:#217452;}
	.st13{fill:#5F8541;}
	.st14{fill:#F79443;}
	.st15{fill:#F47D4E;}
	.st16{fill:#F58C3B;}
	.st17{fill:#5F8440;}
	.st18{fill:#EE5732;}
	.st19{fill:#E25F59;}
	.st20{fill:#E84C2E;}
	.st21{fill:#5560A4;}
	.st22{fill:#2D4C80;}
	.st23{fill:#1E4A7C;}
	.st24{fill:#1C497A;}
	.st25{fill:#5F8340;}
	.st26{fill:#CD2E41;}
	.st27{fill:#A44C57;}
	.st28{fill:#F38A3A;}
</style>
<path class="st0" d="M-188.042,260.731h-0.775v-1.788h-3.56v-2.568h-28.949v1.551h-0.957v6.03h0.957l0.2,2.056l28.748,0.002v-2.447
	h3.56v-1.871h0.783C-188.007,261.204-188.036,260.798-188.042,260.731z"/>
<g>
	<path class="st0" d="M-185.203,260.903c-0.85-2.654-3.616-4.748-5.673-5.991c0.258-0.384,0.429-0.654,0.456-0.697
		c1.373-2.422,3.935-2.314,4.054-2.287l0.488,0.027l-0.33-0.357c-1.895-2.049-5.286-2.774-7.674-3.031
		c0.072-0.458,0.113-0.776,0.119-0.826c0.219-2.767,2.605-3.746,2.706-3.787l0.453-0.18l-0.451-0.185
		c-2.58-1.057-5.96-0.283-8.234,0.494c-0.128-0.443-0.224-0.747-0.24-0.795c-0.968-2.602,0.779-4.5,0.853-4.578l0.335-0.355
		l-0.488,0.022c-2.785,0.136-5.522,2.267-7.255,3.932c-0.304-0.348-0.52-0.584-0.554-0.621c-1.979-1.952-1.198-4.406-1.163-4.509
		l0.153-0.463l-0.431,0.227c-2.464,1.297-4.045,4.386-4.913,6.628c-0.423-0.187-0.718-0.309-0.764-0.327
		c-2.617-0.931-2.947-3.487-2.959-3.595l-0.057-0.485l-0.296,0.389c-1.685,2.217-1.814,5.684-1.653,8.082
		c-0.462,0.009-0.781,0.024-0.831,0.028c-0.155,0.015-0.308,0.022-0.458,0.02c-2.459,0-3.689-1.942-3.743-2.03l-0.256-0.414
		l-0.103,0.476c-0.59,2.724,0.761,5.921,1.92,8.026c-0.415,0.204-0.698,0.352-0.742,0.375c-2.403,1.4-4.566,0.02-4.657-0.044
		l-0.409-0.266l0.108,0.476c0.42,1.849,1.753,3.498,3.17,4.823c-0.051,0.177-0.112,0.349-0.112,0.55c0,0.305,0.039,0.591,0.117,0.85
		c0.078,0.259,0.179,0.485,0.302,0.674c0.128,0.197,0.299,0.377,0.508,0.534c0.188,0.142,0.372,0.258,0.546,0.345
		c0.117,0.059,0.248,0.113,0.396,0.163h-2.01l0.003,0.468c0.006,0.997,0.374,1.813,1.094,2.426c0.699,0.595,1.617,0.896,2.73,0.896
		c1.117,0,2.035-0.281,2.73-0.836c0.374-0.299,0.645-0.656,0.828-1.059c0.37,0.515,0.81,0.965,1.37,1.285
		c0.71,0.406,1.511,0.611,2.381,0.611c0.856,0,1.632-0.214,2.315-0.638l0.105,0.414h5.282v-0.467v-0.001v-0.424v-3.781
		c0-0.509,0.12-0.905,0.356-1.176c0.224-0.256,0.509-0.376,0.899-0.376c0.456,0,0.587,0.172,0.63,0.229
		c0.104,0.136,0.227,0.425,0.227,1.027v4.077v0.425v0v0.467h0.077h0.813h4.985v-4.627c0-0.525,0.094-0.906,0.272-1.1
		c0.17-0.185,0.473-0.239,0.755-0.258c-0.156,0.477-0.256,0.974-0.256,1.496c0,0.647,0.121,1.27,0.361,1.85
		c0.24,0.581,0.573,1.087,0.991,1.505c0.418,0.418,0.924,0.752,1.503,0.994c0.581,0.242,1.206,0.365,1.858,0.365
		c1.148,0,2.155-0.348,2.992-1.036c0.834-0.684,1.361-1.593,1.572-2.698c0.037-0.191,0.058-0.392,0.07-0.584h-0.524h-0.75h-1.429
		h-0.314l-0.123,0.289c-0.146,0.344-0.351,0.609-0.608,0.788c-0.254,0.177-0.544,0.263-0.887,0.263c-0.444,0-0.809-0.16-1.114-0.489
		c-0.314-0.338-0.466-0.745-0.466-1.244c0-0.496,0.151-0.897,0.461-1.226c0.302-0.321,0.669-0.477,1.12-0.477
		c0.339,0,0.634,0.083,0.902,0.254c0.263,0.169,0.458,0.402,0.595,0.714l0.125,0.284h0.31h2.075h0.075h0.551
		c-0.005-0.09-0.01-0.143-0.01-0.143c1.405-0.156,2.497,0.397,2.561,0.43l0.429,0.232L-185.203,260.903z M-186.812,251.551
		c-0.89,0.076-2.817,0.478-3.945,2.464c-0.006,0.01-0.176,0.281-0.458,0.697c-1.104-0.643-1.944-1.018-2.039-1.059
		c-0.588-0.253-1.145-0.447-1.682-0.612c0.479-1.367,0.803-2.979,0.986-4.074C-191.744,249.207-188.666,249.843-186.812,251.551z
		 M-198.344,250.398c0.063-0.408,0.055-0.901,0.021-1.417c0.551-0.079,1.132-0.141,1.766-0.16c0.005,0,0.059-0.002,0.155-0.002
		c0.31,0,1.086,0.021,2.058,0.111c-0.184,1.089-0.508,2.681-0.974,4.009c-1.378-0.383-2.545-0.517-3.431-0.53
		C-198.465,251.302-198.353,250.464-198.344,250.398z M-199.163,252.405c-0.849,0.018-1.364,0.125-1.414,0.137
		c-0.459,0.099-0.856,0.239-1.247,0.382c0.051-0.998-0.043-2.009-0.188-2.889c0.785-0.36,1.891-0.742,3.299-0.985
		c0.03,0.474,0.037,0.924-0.021,1.293C-198.736,250.361-198.858,251.249-199.163,252.405z M-193.943,243.476
		c0.806,0,1.594,0.094,2.321,0.325c-0.771,0.446-2.351,1.626-2.533,3.901c-0.002,0.012-0.043,0.33-0.122,0.827
		c-1.267-0.115-2.183-0.102-2.293-0.103c-0.64,0.02-1.227,0.079-1.782,0.157c-0.144-1.442-0.532-3.042-0.829-4.111
		C-197.719,243.976-195.791,243.476-193.943,243.476z M-198.744,248.653c-1.411,0.236-2.526,0.609-3.335,0.971
		c-0.209-1.122-0.462-1.928-0.482-1.991c-0.115-0.397-0.332-0.841-0.581-1.295c0.465-0.305,0.966-0.606,1.532-0.893
		c0.023-0.011,0.849-0.406,2.054-0.838C-199.262,245.671-198.882,247.251-198.744,248.653z M-205.404,255.122
		c-0.028-0.498-0.202-0.986-0.43-1.438c0.251-0.512,0.591-1.041,1.049-1.572c0.041,0.099,0.431,1.106,0.509,2.204
		c-0.485,0.412-0.854,0.826-1.144,1.221C-205.397,255.298-205.403,255.144-205.404,255.122z M-206.994,250.174
		c0.006-0.01,0.216-0.409,0.688-1.006c0.499,0.74,0.999,1.612,1.352,2.519c-0.482,0.531-0.825,1.063-1.104,1.583
		c-0.572-0.94-1.316-1.626-1.36-1.664c-0.041-0.044-0.089-0.082-0.131-0.125C-207.404,251.059-207.232,250.626-206.994,250.174z
		 M-207.851,251.194c-0.733-0.681-1.567-1.258-2.334-1.713c0.229-0.832,0.646-1.924,1.366-3.158
		c0.382,0.282,0.731,0.566,0.976,0.847c0.012,0.013,0.614,0.678,1.305,1.655c-0.532,0.661-0.781,1.124-0.804,1.169
		C-207.562,250.408-207.709,250.802-207.851,251.194z M-206.038,248.853c0.56-0.658,1.399-1.472,2.573-2.288
		c0.227,0.417,0.424,0.823,0.527,1.181c0.005,0.017,0.27,0.874,0.483,2.05c-0.761,0.375-1.183,0.689-1.222,0.719
		c-0.374,0.284-0.675,0.579-0.969,0.874C-205.023,250.464-205.535,249.588-206.038,248.853z M-204.426,251.948
		c-0.019-0.057-0.047-0.112-0.067-0.169c0.309-0.321,0.648-0.641,1.055-0.95c0.009-0.008,0.369-0.28,1.05-0.622
		c0.139,0.882,0.224,1.884,0.161,2.854c-0.662,0.278-1.198,0.614-1.671,0.968C-204.019,252.936-204.404,252.001-204.426,251.948z
		 M-199.254,238.812c-0.51,0.729-1.444,2.467-0.648,4.608c0.004,0.012,0.101,0.316,0.239,0.798c-1.192,0.43-2.03,0.831-2.122,0.877
		c-0.572,0.289-1.079,0.591-1.55,0.897c-0.739-1.244-1.764-2.526-2.484-3.37C-204.217,241.086-201.753,239.133-199.254,238.812z
		 M-203.66,246.22c-1.179,0.81-2.031,1.619-2.611,2.289c-0.664-0.929-1.235-1.552-1.279-1.6c-0.271-0.312-0.655-0.623-1.072-0.929
		c0.293-0.473,0.62-0.958,1.013-1.456c0.016-0.02,0.589-0.725,1.504-1.63C-205.391,243.735-204.378,245.008-203.66,246.22z
		 M-208.282,237.515c-0.155,0.877-0.264,2.846,1.363,4.448c0.008,0.009,0.225,0.245,0.555,0.625
		c-0.898,0.893-1.488,1.611-1.553,1.691c-0.397,0.503-0.729,0.992-1.027,1.467c-1.196-0.817-2.669-1.547-3.679-2.007
		C-211.821,241.672-210.406,238.86-208.282,237.515z M-212.766,244.11c1.004,0.46,2.459,1.186,3.622,1.982
		c-0.726,1.232-1.157,2.325-1.4,3.176c-0.995-0.561-1.776-0.885-1.837-0.91c-0.376-0.167-0.854-0.287-1.361-0.388
		c0.066-0.552,0.158-1.129,0.303-1.746C-213.432,246.199-213.213,245.32-212.766,244.11z M-210.84,252.371
		c-0.952-0.307-1.952-0.478-2.839-0.566c-0.144-0.851-0.228-2.018-0.096-3.441c0.465,0.094,0.901,0.204,1.242,0.355
		c0.015,0.006,0.843,0.353,1.881,0.947c-0.202,0.824-0.233,1.349-0.235,1.399C-210.91,251.535-210.877,251.955-210.84,252.371z
		 M-217.01,240.155c0.232,0.86,0.961,2.691,3.112,3.457c0.012,0.004,0.308,0.125,0.767,0.33c-0.441,1.199-0.665,2.09-0.69,2.191
		c-0.146,0.623-0.242,1.205-0.31,1.762c-1.429-0.235-3.074-0.274-4.184-0.264C-218.462,245.418-218.368,242.272-217.01,240.155z
		 M-214.093,251.763c-1.138-0.088-1.983-0.053-2.05-0.051c-0.412,0.008-0.896,0.102-1.398,0.225
		c-0.174-0.528-0.335-1.09-0.465-1.711c-0.004-0.024-0.178-0.914-0.283-2.201c1.104-0.008,2.731,0.036,4.122,0.266
		C-214.305,249.715-214.233,250.888-214.093,251.763z M-223.807,246.236c0.572,0.683,2.033,2.026,4.283,1.819
		c0.012-0.002,0.331-0.019,0.832-0.027c0.107,1.274,0.281,2.176,0.301,2.277c0.131,0.627,0.291,1.195,0.464,1.729
		c-1.392,0.392-2.897,1.051-3.899,1.529C-222.894,251.618-224.143,248.733-223.807,246.236z M-221.15,256.625
		c-1.064,0-1.946,0.274-2.622,0.815c-0.424,0.34-0.68,0.763-0.851,1.227c-1.199-1.15-2.302-2.539-2.772-4.045
		c0.806,0.372,2.681,0.988,4.647-0.163c0.011-0.006,0.296-0.156,0.749-0.377c0.63,1.098,1.169,1.853,1.23,1.937
		c0.206,0.275,0.413,0.506,0.62,0.751C-220.47,256.704-220.783,256.625-221.15,256.625z M-216.221,257.232
		c-0.605,0.344-1.078,0.829-1.46,1.399c-0.023-0.018-0.048-0.041-0.072-0.06c-0.171-0.414-0.407-0.795-0.774-1.103
		c-0.28-0.235-0.618-0.392-0.971-0.529c-0.318-0.351-0.638-0.732-0.954-1.154c-0.014-0.021-0.547-0.757-1.184-1.874
		c0.998-0.474,2.49-1.123,3.847-1.503c0.919,2.596,2.19,4.026,2.575,4.419C-215.565,256.927-215.905,257.053-216.221,257.232z
		 M-211.329,256.835l-0.1,0.331l-0.039,0.128c-0.696-0.444-1.492-0.669-2.374-0.669c-0.31,0-0.598,0.057-0.889,0.109
		c-0.035-0.031-0.069-0.049-0.104-0.081c-0.018-0.018-1.527-1.438-2.571-4.343c0.461-0.112,0.904-0.196,1.277-0.203
		c0.015,0,0.913-0.035,2.105,0.064c0.165,0.833,0.359,1.321,0.379,1.367c0.63,1.544,1.494,2.578,2.35,3.297H-211.329z
		 M-209.306,256.835L-209.306,256.835h-0.055h-1.3c-0.933-0.679-1.921-1.737-2.62-3.448c-0.004-0.011-0.174-0.429-0.328-1.175
		c0.888,0.093,1.877,0.271,2.798,0.584c0.225,1.653,0.877,2.839,1.505,3.649V256.835z M-208.841,253.961h-0.466v0.466v1.334
		c-0.454-0.7-0.877-1.631-1.071-2.821c0.104,0.033,1.12,0.38,2.008,1.021H-208.841z M-208.338,253.493
		c-0.915-0.609-1.879-0.915-1.933-0.932c-0.056-0.022-0.116-0.036-0.173-0.058c-0.048-0.444-0.074-0.91-0.049-1.421
		c0-0.012,0.022-0.463,0.198-1.204c0.765,0.46,1.586,1.039,2.289,1.712C-208.219,252.277-208.305,252.903-208.338,253.493z
		 M-206.386,253.961h-0.291h-1.08c-0.07-0.061-0.131-0.13-0.204-0.187c0.012-0.57,0.096-1.194,0.287-1.869
		c0.079,0.073,0.86,0.822,1.394,1.784C-206.323,253.784-206.348,253.869-206.386,253.961z M-206.145,256.756
		c-0.036,0.083-0.043,0.106-0.066,0.161v-2.242c0.056-0.178,0.079-0.335,0.155-0.523c0.136,0.324,0.24,0.658,0.258,0.993
		C-205.797,255.157-205.781,255.838-206.145,256.756z M-205.09,256.757l-0.046,0.04c-0.227,0.048-0.453,0.096-0.664,0.174
		c0.039-0.094,0.085-0.192,0.116-0.282c0.235-0.475,0.679-1.178,1.417-1.865c-0.013,0.353-0.06,0.701-0.185,1.014
		C-204.455,255.847-204.655,256.254-205.09,256.757z M-203.358,256.831c-0.291-0.073-0.569-0.17-0.902-0.17
		c-0.086,0-0.162,0.024-0.246,0.029c0.284-0.39,0.405-0.674,0.418-0.705c0.185-0.463,0.233-0.98,0.217-1.487
		c0.444-0.357,0.976-0.693,1.617-0.981C-202.26,253.66-202.392,255.703-203.358,256.831z M-201.248,258.626
		c-0.107-0.244-0.243-0.466-0.386-0.681c0.138-0.133,0.266-0.267,0.386-0.405V258.626z M-201.248,256.85v0.071
		c-0.181,0.237-0.394,0.479-0.631,0.712c-0.303-0.314-0.67-0.522-1.071-0.677c0.008-0.01,0.035-0.042,0.035-0.042
		c0.95-1.286,1.052-3.312,1.054-3.394c0.007-0.059,0.005-0.12,0.011-0.179c0.416-0.16,0.859-0.307,1.359-0.414
		c0.011-0.002,0.462-0.093,1.214-0.116c-0.283,0.983-0.686,2.093-1.266,3.029c-0.004,0.009-0.251,0.47-0.653,1.01H-201.248z
		 M-198.147,257.117c-0.241,0.102-0.486,0.199-0.691,0.357l-0.128-0.328l-0.116-0.297h-0.318h-1.304
		c0.308-0.443,0.489-0.787,0.505-0.818c0.624-1.009,1.048-2.195,1.337-3.226c0.862,0.007,2.034,0.131,3.405,0.504
		c-0.173,0.442-0.357,0.852-0.565,1.162C-196.037,254.492-196.899,255.825-198.147,257.117z M-192.653,256.624
		c-0.656,0-1.283,0.12-1.865,0.356c-0.387,0.158-0.684,0.414-1,0.65v-0.358v-0.466h-0.466h-0.709c-0.257,0-0.478,0.061-0.71,0.101
		c1.004-1.125,1.666-2.152,1.708-2.219c0.232-0.344,0.434-0.798,0.622-1.284c0.529,0.16,1.086,0.36,1.665,0.608
		c0.023,0.01,0.854,0.381,1.965,1.03c-0.313,0.454-0.729,1.016-1.174,1.588C-192.63,256.63-192.64,256.624-192.653,256.624z
		 M-188.123,260.316l-0.006-0.032c-0.219-1.094-0.747-1.987-1.571-2.655c-0.698-0.566-1.542-0.842-2.47-0.929
		c0.402-0.525,0.776-1.034,1.062-1.452c1.898,1.149,4.421,3.024,5.377,5.355C-186.227,260.424-187.105,260.2-188.123,260.316z
		 M-211.942,261.302c0,0.954-0.773,1.727-1.727,1.727s-1.727-0.773-1.727-1.727s0.773-1.727,1.727-1.727
		S-211.942,260.348-211.942,261.302z M-220.462,259.975c-0.072-0.014-0.146-0.028-0.223-0.041l-0.179-0.033l-0.225-0.042
		c-0.082-0.016-0.189-0.041-0.32-0.074c-0.153-0.039-0.205-0.064-0.215-0.069c-0.063-0.033-0.126-0.07-0.192-0.112
		c0.004-0.104,0.028-0.15,0.099-0.202c0.108-0.079,0.279-0.12,0.509-0.12c0.271,0,0.48,0.05,0.605,0.144
		c0.062,0.047,0.134,0.128,0.137,0.344L-220.462,259.975L-220.462,259.975z M-219.375,260.23h0.984
		c-0.03,0.138-0.053,0.274-0.072,0.409c-0.134-0.089-0.279-0.169-0.436-0.239C-219.031,260.342-219.19,260.285-219.375,260.23
		L-219.375,260.23z M-221.061,263.282c-0.295,0-0.526-0.061-0.685-0.181c-0.085-0.064-0.183-0.17-0.187-0.423l-0.003-0.196
		c0.116,0.022,0.246,0.045,0.391,0.07c0.239,0.041,0.432,0.079,0.578,0.114c0.131,0.031,0.265,0.074,0.402,0.13
		c0.117,0.048,0.154,0.089,0.16,0.097c0.005,0.006,0.013,0.017,0.013,0.052c0,0.095-0.028,0.145-0.112,0.199
		C-220.647,263.236-220.834,263.282-221.061,263.282L-221.061,263.282z"/>
	<g>
		<g>
			<path class="st1" d="M-211.215,258.068c-0.733-0.651-1.609-0.977-2.627-0.977c-0.791,0-1.508,0.182-2.15,0.547
				c-0.642,0.364-1.144,0.868-1.505,1.513c-0.362,0.644-0.543,1.362-0.543,2.153c0,0.239,0.049,0.457,0.081,0.683
				c-0.193-0.51-0.557-0.905-1.129-1.16c-0.343-0.15-0.902-0.294-1.679-0.434c-0.183-0.034-0.32-0.059-0.409-0.076
				s-0.205-0.044-0.347-0.08c-0.142-0.036-0.248-0.072-0.318-0.109c-0.07-0.036-0.145-0.08-0.224-0.13
				c-0.08-0.051-0.135-0.111-0.166-0.181c-0.031-0.07-0.047-0.148-0.047-0.235c0-0.232,0.095-0.417,0.286-0.557
				s0.452-0.21,0.785-0.21c0.381,0,0.677,0.08,0.887,0.239c0.21,0.159,0.317,0.396,0.322,0.709h2.055
				c-0.005-0.801-0.299-1.446-0.883-1.936c-0.584-0.49-1.358-0.735-2.323-0.735c-0.96,0-1.737,0.238-2.33,0.713
				c-0.594,0.475-0.89,1.092-0.89,1.849c0,0.261,0.033,0.499,0.098,0.716s0.147,0.402,0.246,0.554s0.232,0.291,0.398,0.416
				c0.166,0.126,0.324,0.226,0.474,0.3c0.149,0.075,0.334,0.143,0.554,0.206c0.219,0.063,0.406,0.11,0.561,0.141
				c0.154,0.031,0.345,0.066,0.572,0.105c0.251,0.043,0.454,0.083,0.608,0.12c0.154,0.036,0.311,0.087,0.47,0.152
				s0.276,0.146,0.351,0.242c0.075,0.097,0.112,0.21,0.112,0.34c0,0.256-0.11,0.454-0.329,0.593c-0.219,0.14-0.489,0.21-0.807,0.21
				c-0.401,0-0.723-0.092-0.966-0.275c-0.244-0.183-0.368-0.446-0.373-0.789h-2.106c0.005,0.859,0.315,1.55,0.93,2.074
				c0.615,0.524,1.425,0.785,2.428,0.785c1.013,0,1.826-0.245,2.439-0.735s0.919-1.142,0.919-1.958c0-0.066-0.018-0.12-0.022-0.183
				c0.086,0.275,0.176,0.549,0.317,0.802c0.362,0.649,0.864,1.157,1.505,1.523c0.642,0.367,1.358,0.55,2.15,0.55
				c0.999,0,1.862-0.319,2.591-0.955l0.188,0.716h1.701v-8.005h-1.621L-211.215,258.068z M-212.109,262.873
				c-0.413,0.415-0.933,0.622-1.56,0.622c-0.627,0-1.147-0.209-1.56-0.626c-0.412-0.417-0.619-0.94-0.619-1.567
				c0-0.627,0.206-1.15,0.619-1.567s0.933-0.626,1.56-0.626c0.627,0,1.147,0.207,1.56,0.623c0.412,0.415,0.619,0.938,0.619,1.57
				C-211.49,261.935-211.697,262.458-212.109,262.873z"/>
			<path class="st1" d="M-204.26,257.127c-0.96,0-1.766,0.311-2.417,0.934v-3.633h-2.164v10.892h2.164v-4.205
				c0-0.646,0.163-1.157,0.489-1.531c0.326-0.374,0.761-0.561,1.306-0.561c0.482,0,0.836,0.147,1.06,0.442
				c0.224,0.294,0.337,0.746,0.337,1.354v4.502h2.164v-4.863c0-1.023-0.264-1.833-0.792-2.432
				C-202.643,257.426-203.358,257.127-204.26,257.127z"/>
			<path class="st1" d="M-190.736,262.171c-0.183,0.429-0.442,0.76-0.774,0.991c-0.333,0.232-0.719,0.348-1.158,0.348
				c-0.579,0-1.066-0.214-1.462-0.641c-0.396-0.427-0.593-0.949-0.593-1.567c0-0.618,0.197-1.135,0.59-1.552
				c0.393-0.417,0.882-0.626,1.466-0.626c0.43,0,0.815,0.11,1.158,0.329c0.343,0.22,0.6,0.527,0.774,0.923h2.15
				c-0.198-0.989-0.667-1.784-1.408-2.385s-1.627-0.901-2.66-0.901c-0.598,0-1.162,0.107-1.69,0.322s-0.981,0.508-1.357,0.879
				c-0.12,0.119-0.18,0.294-0.284,0.428v-1.448h-0.709c-0.999,0-1.773,0.343-2.323,1.028l-0.383-0.984h-1.383v8.005h2.164v-4.162
				c0-0.656,0.132-1.128,0.394-1.415c0.263-0.287,0.698-0.431,1.306-0.431h0.54c-0.061,0.115-0.16,0.194-0.212,0.318
				c-0.217,0.521-0.326,1.076-0.326,1.665c0,0.589,0.108,1.146,0.326,1.672c0.217,0.526,0.514,0.977,0.89,1.353
				c0.376,0.376,0.827,0.674,1.353,0.894c0.526,0.219,1.086,0.329,1.679,0.329c1.042,0,1.941-0.31,2.696-0.93
				s1.227-1.434,1.415-2.443L-190.736,262.171L-190.736,262.171z"/>
		</g>
		<path class="st2" d="M-223.808,246.236c0.572,0.683,2.033,2.026,4.283,1.819c0.012-0.002,0.331-0.019,0.832-0.027
			c0.107,1.274,0.281,2.176,0.301,2.277c0.131,0.627,0.291,1.195,0.464,1.729c-1.392,0.392-2.897,1.051-3.899,1.529
			C-222.895,251.618-224.144,248.733-223.808,246.236z"/>
		<path class="st3" d="M-214.094,251.763c-1.138-0.088-1.983-0.053-2.05-0.051c-0.412,0.008-0.896,0.102-1.398,0.225
			c-0.174-0.528-0.335-1.09-0.464-1.711c-0.004-0.024-0.178-0.914-0.283-2.201c1.104-0.008,2.731,0.036,4.122,0.266
			C-214.306,249.715-214.234,250.888-214.094,251.763z"/>
		<path class="st4" d="M-217.011,240.155c0.232,0.86,0.961,2.691,3.112,3.457c0.012,0.004,0.308,0.125,0.767,0.33
			c-0.441,1.199-0.665,2.09-0.69,2.191c-0.146,0.623-0.241,1.205-0.31,1.762c-1.429-0.235-3.074-0.274-4.184-0.264
			C-218.463,245.418-218.369,242.272-217.011,240.155z"/>
		<path class="st5" d="M-208.283,237.515c-0.155,0.877-0.264,2.846,1.363,4.448c0.008,0.009,0.225,0.245,0.555,0.625
			c-0.898,0.893-1.488,1.611-1.553,1.691c-0.397,0.503-0.729,0.992-1.027,1.467c-1.196-0.817-2.669-1.547-3.679-2.007
			C-211.822,241.672-210.407,238.86-208.283,237.515z"/>
		<path class="st6" d="M-212.767,244.11c1.004,0.46,2.459,1.186,3.622,1.982c-0.726,1.232-1.157,2.325-1.399,3.176
			c-0.995-0.561-1.776-0.885-1.837-0.91c-0.376-0.167-0.854-0.287-1.361-0.388c0.066-0.552,0.158-1.129,0.303-1.746
			C-213.433,246.199-213.214,245.32-212.767,244.11z"/>
		<path class="st7" d="M-210.841,252.371c-0.952-0.307-1.952-0.478-2.839-0.566c-0.144-0.851-0.228-2.018-0.096-3.441
			c0.465,0.094,0.901,0.204,1.242,0.355c0.015,0.006,0.843,0.353,1.881,0.947c-0.202,0.824-0.233,1.349-0.235,1.399
			C-210.911,251.535-210.878,251.955-210.841,252.371z"/>
		<path class="st8" d="M-208.339,253.493c-0.915-0.609-1.879-0.915-1.933-0.932c-0.056-0.022-0.116-0.036-0.173-0.058
			c-0.048-0.444-0.074-0.91-0.049-1.421c0-0.012,0.022-0.463,0.198-1.204c0.765,0.46,1.586,1.039,2.289,1.712
			C-208.22,252.277-208.306,252.903-208.339,253.493z"/>
		<path class="st9" d="M-210.187,249.481c0.229-0.832,0.646-1.924,1.366-3.158c0.382,0.282,0.731,0.566,0.976,0.847
			c0.012,0.013,0.614,0.678,1.305,1.655c-0.532,0.661-0.781,1.124-0.804,1.169c-0.219,0.414-0.366,0.808-0.508,1.2
			C-208.585,250.513-209.42,249.935-210.187,249.481z"/>
		<path class="st10" d="M-203.661,246.22c-1.179,0.81-2.031,1.619-2.611,2.289c-0.664-0.929-1.235-1.552-1.279-1.6
			c-0.271-0.312-0.655-0.623-1.072-0.929c0.293-0.473,0.62-0.958,1.013-1.456c0.016-0.02,0.589-0.725,1.504-1.63
			C-205.392,243.735-204.379,245.008-203.661,246.22z"/>
		<path class="st11" d="M-199.255,238.812c-0.51,0.729-1.444,2.467-0.648,4.608c0.004,0.012,0.101,0.316,0.239,0.798
			c-1.192,0.43-2.03,0.831-2.122,0.877c-0.572,0.289-1.079,0.591-1.55,0.897c-0.739-1.244-1.764-2.526-2.484-3.37
			C-204.218,241.086-201.754,239.133-199.255,238.812z"/>
		<path class="st12" d="M-206.995,250.174c0.006-0.01,0.216-0.409,0.688-1.006c0.499,0.74,0.999,1.612,1.352,2.519
			c-0.482,0.531-0.825,1.063-1.104,1.583c-0.572-0.94-1.316-1.626-1.36-1.664c-0.041-0.044-0.089-0.082-0.131-0.125
			C-207.405,251.059-207.233,250.626-206.995,250.174z"/>
		<path class="st8" d="M-206.678,253.961h-1.08c-0.07-0.061-0.131-0.13-0.204-0.187c0.012-0.57,0.096-1.194,0.287-1.869
			c0.079,0.073,0.86,0.822,1.394,1.784c-0.043,0.095-0.068,0.18-0.106,0.272H-206.678z"/>
		<path class="st12" d="M-205.405,255.122c-0.028-0.498-0.202-0.986-0.43-1.438c0.251-0.512,0.591-1.041,1.049-1.572
			c0.041,0.099,0.431,1.106,0.509,2.204c-0.485,0.412-0.854,0.826-1.144,1.221C-205.398,255.298-205.404,255.144-205.405,255.122z"
			/>
		<path class="st13" d="M-206.039,248.853c0.56-0.658,1.399-1.472,2.573-2.288c0.227,0.417,0.424,0.823,0.527,1.181
			c0.005,0.017,0.27,0.874,0.483,2.05c-0.761,0.375-1.183,0.689-1.222,0.719c-0.374,0.284-0.675,0.579-0.969,0.874
			C-205.024,250.464-205.536,249.588-206.039,248.853z"/>
		<path class="st14" d="M-198.745,248.653c-1.411,0.236-2.526,0.609-3.335,0.971c-0.209-1.122-0.462-1.928-0.482-1.991
			c-0.115-0.397-0.332-0.841-0.581-1.295c0.465-0.305,0.966-0.606,1.532-0.893c0.023-0.011,0.849-0.406,2.054-0.838
			C-199.264,245.671-198.883,247.251-198.745,248.653z"/>
		<path class="st15" d="M-193.944,243.476c0.806,0,1.594,0.094,2.321,0.325c-0.771,0.446-2.351,1.626-2.533,3.901
			c-0.002,0.012-0.042,0.33-0.122,0.827c-1.267-0.115-2.183-0.102-2.293-0.103c-0.64,0.02-1.227,0.079-1.782,0.157
			c-0.144-1.442-0.532-3.042-0.829-4.111C-197.72,243.976-195.792,243.476-193.944,243.476z"/>
		<path class="st16" d="M-199.164,252.405c-0.849,0.018-1.364,0.125-1.414,0.137c-0.459,0.099-0.856,0.239-1.247,0.382
			c0.051-0.998-0.043-2.009-0.188-2.889c0.785-0.36,1.891-0.742,3.299-0.985c0.03,0.474,0.037,0.924-0.021,1.293
			C-198.737,250.361-198.859,251.249-199.164,252.405z"/>
		<path class="st17" d="M-204.427,251.948c-0.019-0.057-0.047-0.112-0.067-0.169c0.309-0.321,0.648-0.641,1.055-0.95
			c0.009-0.008,0.369-0.28,1.05-0.622c0.139,0.882,0.224,1.884,0.161,2.854c-0.662,0.278-1.198,0.614-1.671,0.968
			C-204.02,252.936-204.405,252.001-204.427,251.948z"/>
		<path class="st18" d="M-198.345,250.398c0.063-0.408,0.055-0.901,0.021-1.417c0.551-0.079,1.132-0.141,1.766-0.16
			c0.005,0,0.059-0.002,0.155-0.002c0.31,0,1.086,0.021,2.058,0.111c-0.184,1.089-0.508,2.681-0.974,4.009
			c-1.378-0.383-2.545-0.517-3.431-0.53C-198.466,251.302-198.354,250.464-198.345,250.398z"/>
		<path class="st19" d="M-186.813,251.551c-0.89,0.076-2.817,0.478-3.945,2.464c-0.006,0.01-0.176,0.281-0.458,0.697
			c-1.104-0.643-1.944-1.018-2.039-1.059c-0.588-0.253-1.145-0.447-1.682-0.612c0.479-1.367,0.803-2.979,0.986-4.074
			C-191.745,249.207-188.667,249.843-186.813,251.551z"/>
		<path class="st20" d="M-201.624,257.933c0.211,0.334,0.375,0.693,0.375,0.693v-1.087
			C-201.366,257.674-201.491,257.804-201.624,257.933z"/>
		<path class="st21" d="M-224.387,258.196c0.156-0.276,0.342-0.538,0.615-0.756c0.675-0.541,1.557-0.815,2.622-0.815
			c0.367,0,0.68,0.079,1.001,0.145c-0.207-0.245-0.414-0.476-0.62-0.751c-0.061-0.083-0.6-0.839-1.23-1.937
			c-0.453,0.221-0.738,0.371-0.749,0.377c-1.966,1.151-3.842,0.535-4.647,0.163c0.47,1.506,1.573,2.895,2.772,4.045
			C-224.562,258.501-224.481,258.346-224.387,258.196z"/>
		<path class="st22" d="M-219.499,256.939L-219.499,256.939c0.353,0.137,0.692,0.295,0.971,0.529
			c0.186,0.156,0.337,0.331,0.464,0.519c0.126,0.182,0.225,0.379,0.309,0.584l0,0c0.023,0.019,0.048,0.041,0.072,0.06
			c0.191-0.284,0.404-0.548,0.645-0.782c0.242-0.236,0.512-0.444,0.815-0.616c0.316-0.179,0.656-0.305,1.006-0.405l0,0
			c-0.385-0.393-1.656-1.823-2.575-4.419c-1.357,0.379-2.849,1.029-3.847,1.503c0.637,1.117,1.169,1.853,1.184,1.874
			C-220.138,256.208-219.818,256.588-219.499,256.939z"/>
		<path class="st23" d="M-214.732,256.733L-214.732,256.733c0.29-0.051,0.58-0.108,0.889-0.108c0.883,0,1.679,0.224,2.374,0.669
			l0.039-0.128l0.1-0.331h0.034c-0.857-0.72-1.72-1.753-2.35-3.297c-0.02-0.046-0.214-0.535-0.379-1.367
			c-1.192-0.099-2.089-0.064-2.105-0.064c-0.373,0.007-0.816,0.092-1.277,0.203c1.044,2.906,2.553,4.325,2.571,4.343
			C-214.801,256.684-214.766,256.702-214.732,256.733z"/>
		<path class="st24" d="M-210.663,256.835h1.3h0.055v-0.39c-0.628-0.809-1.28-1.996-1.505-3.649c-0.921-0.313-1.91-0.49-2.798-0.584
			c0.154,0.746,0.324,1.164,0.328,1.175C-212.584,255.098-211.595,256.156-210.663,256.835z"/>
		<path class="st24" d="M-209.308,254.427v-0.466h0.466h0.471c-0.888-0.641-1.904-0.988-2.008-1.021
			c0.194,1.189,0.617,2.12,1.071,2.821L-209.308,254.427L-209.308,254.427z"/>
		<path class="st8" d="M-206.212,256.917c0.022-0.055,0.03-0.078,0.066-0.162c0.363-0.919,0.348-1.599,0.347-1.611
			c-0.018-0.335-0.122-0.669-0.258-0.993c-0.076,0.189-0.099,0.345-0.155,0.523V256.917z"/>
		<g>
			<g>
				<path class="st12" d="M-205.079,256.741c0.424-0.495,0.621-0.894,0.625-0.902c0.125-0.313,0.172-0.661,0.185-1.014
					c-0.738,0.687-1.182,1.389-1.417,1.865c-0.027,0.079-0.067,0.165-0.102,0.248C-205.641,256.883-205.381,256.801-205.079,256.741
					z"/>
			</g>
		</g>
		<path class="st25" d="M-204.236,256.664c0.246,0.001,0.573,0.03,0.912,0.117c0.931-1.136,1.063-3.123,1.069-3.265
			c-0.641,0.288-1.172,0.624-1.617,0.981c0.016,0.507-0.032,1.024-0.217,1.487c-0.012,0.031-0.133,0.307-0.403,0.683
			C-204.443,256.664-204.245,256.664-204.236,256.664z"/>
		<path class="st20" d="M-199.083,256.849l0.116,0.297l0.128,0.328c0.205-0.158,0.45-0.255,0.691-0.357l0,0
			c1.248-1.292,2.111-2.625,2.124-2.646c0.208-0.31,0.392-0.72,0.565-1.162c-1.37-0.373-2.543-0.497-3.405-0.504
			c-0.289,1.03-0.713,2.217-1.337,3.226c-0.016,0.031-0.197,0.375-0.505,0.818h1.304L-199.083,256.849L-199.083,256.849z"/>
		<path class="st26" d="M-196.694,256.806h0.709h0.466v0.466v0.358c0.316-0.235,0.613-0.492,0.999-0.649
			c0.582-0.236,1.21-0.356,1.865-0.356c0.013,0,0.023,0.006,0.036,0.006c0.445-0.572,0.861-1.134,1.174-1.588
			c-1.111-0.649-1.941-1.02-1.965-1.03c-0.579-0.249-1.135-0.448-1.665-0.608c-0.188,0.486-0.39,0.939-0.622,1.284
			c-0.042,0.067-0.703,1.094-1.708,2.219l0,0C-197.172,256.866-196.951,256.806-196.694,256.806z"/>
		<path class="st27" d="M-191.109,255.25c-0.287,0.417-0.66,0.927-1.062,1.452c0.456,0.043,0.896,0.12,1.299,0.28l0,0
			c0.422,0.151,0.816,0.361,1.171,0.649c0.824,0.668,1.352,1.561,1.571,2.655l0.024,0.118l-0.017-0.087
			c1.018-0.116,1.896,0.107,2.393,0.288C-186.688,258.273-189.211,256.399-191.109,255.25z"/>
		<g>
			<g>
				<path class="st28" d="M-200.492,252.926c-0.5,0.108-0.943,0.254-1.359,0.414c-0.006,0.059-0.004,0.12-0.011,0.179
					c-0.002,0.082-0.104,2.098-1.048,3.384c0.219,0.089,0.647,0.31,1.041,0.716c0.231-0.229,0.442-0.466,0.62-0.699v-0.072h0.053
					c0.403-0.54,0.649-1.001,0.653-1.01c0.579-0.936,0.983-2.046,1.266-3.029C-200.03,252.833-200.481,252.924-200.492,252.926z"/>
			</g>
		</g>
	</g>
</g>
</svg>
