<?xml version="1.0" encoding="utf-8"?>
<!-- Generator: Adobe Illustrator 19.0.0, SVG Export Plug-In . SVG Version: 6.00 Build 0)  -->
<svg version="1.1" id="Layer_1" xmlns="http://www.w3.org/2000/svg" xmlns:xlink="http://www.w3.org/1999/xlink" x="0px" y="0px"
	 viewBox="0 0 42.932 26.658" style="enable-background:new 0 0 42.932 26.658;" xml:space="preserve">
<style type="text/css">
	.st0{fill:#FFFFFF;}
	.st1{fill:#010101;}
	.st2{fill:#FCEB00;}
</style>
<g id="XMLID_1214_">
	<g id="XMLID_39_">
		<path id="XMLID_627_" class="st0" d="M1.42,23.025h2.737c0.01,0,0.157,0.147,0.442,0.442v0.405c0,0.016-0.008,0.025-0.025,0.025
			H1.849v0.601h2.307c0.01,0,0.157,0.147,0.442,0.442v1.276c0,0.01-0.147,0.157-0.442,0.442H1.42
			c-0.012-0.002-0.155-0.145-0.43-0.43v-0.417c0.002-0.016,0.01-0.025,0.025-0.025h2.737v-0.417H1.42l-0.442-0.43
			c0.008-0.47,0.012-0.839,0.012-1.104v-0.38C0.992,23.442,1.135,23.299,1.42,23.025z"/>
		<path id="XMLID_629_" class="st0" d="M5.132,23.037H8.74c0.016,0.002,0.025,0.01,0.025,0.025v0.822
			c0,0.016-0.008,0.025-0.025,0.025H7.366v2.724c0,0.016-0.008,0.025-0.025,0.025H6.519c-0.016,0-0.025-0.008-0.025-0.025v-2.724
			H5.132c-0.016,0-0.025-0.008-0.025-0.025v-0.822C5.11,23.046,5.118,23.037,5.132,23.037z"/>
		<path id="XMLID_1185_" class="st0" d="M9.691,23.05H11.9c0.012,0.002,0.155,0.145,0.43,0.43v2.749
			c-0.002,0.012-0.145,0.155-0.43,0.43H9.691c-0.01,0-0.157-0.147-0.442-0.442v-2.724C9.249,23.481,9.397,23.334,9.691,23.05z
			 M10.121,23.909v1.89h1.35v-1.89H10.121z"/>
		<path id="XMLID_1188_" class="st0" d="M13.226,23.037h2.749c0.012,0.002,0.155,0.145,0.43,0.43v1.473
			c-0.002,0.012-0.145,0.155-0.43,0.43h-0.552l0.97,1.276v0.012h-1.129l-1.006-1.289h-0.601v1.264c0,0.016-0.008,0.025-0.025,0.025
			h-0.822c-0.016,0-0.025-0.008-0.025-0.025v-3.154C12.784,23.469,12.931,23.322,13.226,23.037z M13.655,23.896v0.614h1.902v-0.614
			H13.655z"/>
		<path id="XMLID_1191_" class="st0" d="M16.984,23.037h0.81c0.016,0.002,0.025,0.01,0.025,0.025v1.448h1.89v-1.448
			c0.002-0.016,0.01-0.025,0.025-0.025h0.81c0.016,0.002,0.025,0.01,0.025,0.025v1.878c0,0.01-0.147,0.157-0.442,0.442h-0.859v1.252
			c0,0.016-0.008,0.025-0.025,0.025h-0.957c-0.016,0-0.025-0.008-0.025-0.025v-1.252h-0.871c-0.012-0.002-0.155-0.145-0.43-0.43
			v-1.89C16.961,23.046,16.969,23.037,16.984,23.037z"/>
		<path id="XMLID_1193_" class="st0" d="M21.083,23.025h3.166c0.012,0.002,0.155,0.145,0.43,0.43v1.203l-0.172,0.184l0.172,0.184
			v1.19l-0.417,0.43c-0.417,0.008-0.745,0.012-0.982,0.012h-0.736c-0.331,0-0.822-0.004-1.473-0.012l-0.012-0.025V23.05
			C21.06,23.033,21.068,23.025,21.083,23.025z M21.929,23.884v0.589h1.902v-0.589H21.929z M21.929,25.332v0.454h1.902v-0.454H21.929
			z"/>
		<path id="XMLID_1197_" class="st0" d="M25.614,23.037h2.749c0.012,0.002,0.155,0.145,0.43,0.43v1.473
			c-0.002,0.012-0.145,0.155-0.43,0.43h-0.552l0.969,1.276v0.012h-1.129l-1.006-1.289h-0.601v1.264c0,0.016-0.008,0.025-0.025,0.025
			h-0.822c-0.016,0-0.025-0.008-0.025-0.025v-3.154C25.172,23.469,25.32,23.322,25.614,23.037z M26.044,23.896v0.614h1.902v-0.614
			H26.044z"/>
		<path id="XMLID_1200_" class="st0" d="M29.372,23.05h0.81c0.016,0.002,0.025,0.01,0.025,0.025v3.559
			c0,0.016-0.008,0.025-0.025,0.025h-0.81c-0.016,0-0.025-0.008-0.025-0.025v-3.559C29.35,23.058,29.358,23.05,29.372,23.05z"/>
		<path id="XMLID_1202_" class="st0" d="M31.33,23.037h2.749c0.012,0.002,0.155,0.145,0.43,0.43v0.405
			c0,0.016-0.008,0.025-0.025,0.025h-2.724v0.614v0.859v0.417h2.724c0.016,0.002,0.025,0.01,0.025,0.025v0.405
			c0,0.01-0.147,0.157-0.442,0.442H31.33c-0.01,0-0.157-0.147-0.442-0.442v-2.737C30.888,23.469,31.035,23.322,31.33,23.037z"/>
		<path id="XMLID_1204_" class="st0" d="M34.935,23.025h0.81c0.016,0.002,0.025,0.01,0.025,0.025v1.448h0.724
			c0.027-0.027,0.325-0.517,0.896-1.473h1.117c0,0.033-0.286,0.52-0.859,1.46v0.012h0.331c0.01,0,0.157,0.147,0.442,0.442v1.681
			c0,0.016-0.008,0.025-0.025,0.025h-0.81c-0.016,0-0.025-0.008-0.025-0.025v-1.252h-1.792v1.264c0,0.016-0.008,0.025-0.025,0.025
			h-0.81c-0.016,0-0.025-0.008-0.025-0.025V23.05C34.912,23.033,34.92,23.025,34.935,23.025z"/>
		<path id="XMLID_1206_" class="st0" d="M39.592,23.025h2.737c0.01,0,0.157,0.147,0.442,0.442v0.405
			c0,0.016-0.008,0.025-0.025,0.025h-2.724v0.601h2.307c0.01,0,0.157,0.147,0.442,0.442v1.276c0,0.01-0.147,0.157-0.442,0.442
			h-2.737c-0.012-0.002-0.155-0.145-0.43-0.43v-0.417c0.002-0.016,0.01-0.025,0.025-0.025h2.737v-0.417h-2.332l-0.442-0.43
			c0.008-0.47,0.012-0.839,0.012-1.104v-0.38C39.164,23.442,39.308,23.299,39.592,23.025z"/>
	</g>
	<g id="XMLID_3_">
		<path id="XMLID_1232_" class="st1" d="M36.636,1.213c-2.414,0-4.081,0.957-5.211,2.294c-0.192-0.4-0.336-0.576-0.54-0.807
			c-0.924-1.045-2.411-1.533-4.405-1.533c-1.948,0-3.573,0.608-4.7,1.567c-0.586-0.953-1.982-1.584-3.665-1.584
			c-2.2,0-4.597,0.312-6.018,2.603c-0.034-0.826-0.109-1.262-0.572-1.752c-0.564-0.597-1.476-0.752-2.365-0.752
			c-1.619,0-2.837,0.706-3.713,2.146C4.175,5.427,1.092,12.11,1.162,15.347c0.045,2.091,1.448,3.598,3.959,3.657
			c1.961,0.046,3.5-0.477,4.479-1.466c0.878,0.954,2.218,1.514,3.821,1.514c1.785,0,3.582-0.536,4.643-1.708
			c0.894,1.099,2.301,1.736,4.11,1.728c2.364-0.012,4.441-1.133,5.797-2.852c0.745,2.026,2.633,2.831,4.694,2.831
			c4.518,0,6.503-3.107,8.156-8.02c0.372-1.107,0.869-2.955,0.952-4.507C41.91,3.944,40.818,1.213,36.636,1.213z M6.573,13.564
			c2.337-0.407,2.926,0.439,2.852,1.223c-0.22,2.342-2.37,2.867-4.236,2.822c-1.354-0.031-2.571-0.652-2.605-2.224
			c-0.059-2.749,2.745-9.11,4.065-11.218c0.61-1.001,1.353-1.494,2.537-1.494c1.123,0,1.401,0.575,1.384,1.265
			C10.526,5.778,7.551,11.377,6.573,13.564z M14.186,11.404c-0.155,0.417-0.448,1.294-0.684,2.224
			c0.767-0.191,1.342-0.325,2.329-0.301c1.123,0.027,1.84,0.493,1.84,1.424c0,2.25-2.488,2.911-4.215,2.911
			c-1.896,0-3.561-1.079-3.561-3.152c0-2.431,1.317-6.115,2.554-8.569c1.519-3.015,3.07-3.416,5.741-3.416
			c1.175,0,2.527,0.502,2.527,1.61c0,1.538-1.301,2.123-2.592,2.197c-0.551,0.031-1.399,0.062-1.908,0.026
			c0,0-0.429,0.655-0.886,1.821c2.39-0.336,3.404,0.205,3.001,1.589C17.787,11.635,16.168,11.758,14.186,11.404z M25.941,5.592
			c-0.646,0-1.069,0.41-1.383,0.851c-0.693,0.973-2.194,4.872-2.427,6.473c-0.16,1.098,0.314,1.322,0.831,1.322
			c0.83,0,1.762-0.879,2.079-2.33c0,0-1.581-0.039-1.144-1.441c0.423-1.36,1.226-1.655,2.558-1.71
			c2.623-0.108,2.365,1.832,2.154,2.864c-0.682,3.354-3.069,6.05-6.447,6.05c-2.313,0-3.749-1.279-3.749-3.637
			c0-1.681,0.834-4.318,1.494-5.862c1.406-3.284,2.881-5.584,6.639-5.584c2.254,0,4.033,0.81,3.772,2.922
			c-0.191,1.55-0.967,2.46-2.376,2.569c-0.395,0.031-2.007-0.01-1.472-1.535C26.657,6.011,26.735,5.592,25.941,5.592z M40.132,8.366
			c-0.397,1.977-1.291,4.317-2.26,6.062c-1.582,2.845-3.505,3.243-5.182,3.223c-1.677-0.02-3.57-0.641-3.584-3.229
			c-0.01-1.857,0.792-4.482,1.472-6.201c1.187-3.117,2.399-5.659,6.231-5.614C41.277,2.661,40.48,6.636,40.132,8.366z M36.946,6.418
			c-0.047,1.193-1.796,5.966-2.419,7.019c-0.269,0.457-0.572,0.834-1.119,0.834c-0.476-0.001-0.69-0.34-0.703-0.727
			c-0.034-1.076,1.941-6.476,2.618-7.353c0.301-0.464,0.635-0.538,1.018-0.533C36.902,5.665,36.96,6.069,36.946,6.418z"/>
		<path id="XMLID_1244_" class="st2" d="M41.866,2.349c-0.984-1.369-2.659-2.288-5.205-2.288c-1.926,0-3.646,0.522-5.02,1.665
			c-1.177-1.165-2.867-1.693-5.139-1.693c-1.779,0-3.271,0.405-4.572,1.186C20.988,0.47,19.88,0,18.115,0
			c-1.599,0-3.845,0.083-5.54,1.522c-0.392-0.799-1.187-1.426-3.383-1.426c-2.024,0-3.675,0.956-4.756,2.733
			C2.99,5.138-0.077,11.805,0.001,15.446c0.059,2.741,2.114,4.63,5.091,4.7c1.789,0.043,3.314-0.34,4.477-1.113
			c1.05,0.758,2.394,1.168,3.887,1.168c1.787,0,3.399-0.47,4.595-1.312c1.083,0.858,2.503,1.322,4.111,1.322
			c2.085,0,4.022-0.718,5.588-2.089c1.069,1.36,2.896,2.07,5.119,2.07c4.159,0,6.318-2.558,7.935-5.887
			c0.602-1.242,1.736-4.35,1.945-6.027C43.004,6.223,43.252,4.279,41.866,2.349z M41.773,6.527
			c-0.082,1.552-0.579,3.399-0.952,4.507c-1.653,4.913-3.638,8.02-8.156,8.02c-2.061,0-3.95-0.805-4.694-2.831
			c-1.356,1.719-3.433,2.84-5.797,2.852c-1.809,0.008-3.215-0.63-4.11-1.728c-1.061,1.172-2.858,1.708-4.643,1.708
			c-1.603,0-2.943-0.56-3.821-1.514c-0.98,0.989-2.518,1.512-4.479,1.466c-2.511-0.059-3.913-1.566-3.959-3.657
			C1.092,12.11,4.175,5.427,5.447,3.396c0.876-1.44,2.094-2.146,3.713-2.146c0.889,0,1.801,0.155,2.365,0.752
			c0.462,0.491,0.538,0.927,0.572,1.752c1.422-2.291,3.818-2.603,6.018-2.603c1.683,0,3.079,0.631,3.665,1.584
			c1.128-0.959,2.752-1.567,4.7-1.567c1.994,0,3.481,0.488,4.405,1.533c0.204,0.231,0.348,0.407,0.54,0.807
			c1.13-1.337,2.797-2.294,5.211-2.294C40.818,1.213,41.91,3.944,41.773,6.527z"/>
		<g id="XMLID_37_">
			<path id="XMLID_1213_" class="st0" d="M9.186,2.671c-1.185,0-1.927,0.494-2.537,1.495c-1.32,2.109-4.124,8.469-4.064,11.218
				c0.034,1.572,1.251,2.193,2.605,2.224c1.866,0.045,4.017-0.48,4.236-2.822c0.074-0.784-0.515-1.63-2.852-1.223
				c0.977-2.187,3.953-7.785,3.997-9.627C10.587,3.246,10.309,2.671,9.186,2.671z"/>
			<path id="XMLID_1212_" class="st0" d="M18.332,9.768c0.403-1.383-0.611-1.925-3.001-1.589c0.457-1.166,0.886-1.821,0.886-1.821
				c0.509,0.035,1.356,0.005,1.907-0.026c1.291-0.074,2.592-0.659,2.592-2.197c0-1.108-1.352-1.61-2.527-1.61
				c-2.671,0-4.223,0.401-5.741,3.416c-1.237,2.454-2.554,6.138-2.554,8.569c0,2.072,1.665,3.152,3.561,3.152
				c1.727,0,4.215-0.661,4.215-2.911c0-0.931-0.718-1.397-1.841-1.424c-0.987-0.024-1.562,0.111-2.329,0.301
				c0.236-0.93,0.529-1.807,0.684-2.224C16.168,11.758,17.787,11.635,18.332,9.768z"/>
			<path id="XMLID_1211_" class="st0" d="M27.943,8.081c1.409-0.109,2.185-1.019,2.376-2.569c0.261-2.112-1.518-2.922-3.772-2.922
				c-3.758,0-5.232,2.3-6.639,5.584c-0.661,1.544-1.494,4.181-1.494,5.862c0,2.358,1.435,3.637,3.749,3.637
				c3.377,0,5.765-2.696,6.446-6.05c0.21-1.032,0.469-2.972-2.154-2.864c-1.332,0.054-2.135,0.349-2.558,1.71
				c-0.437,1.402,1.144,1.441,1.144,1.441c-0.317,1.451-1.249,2.33-2.079,2.33c-0.517,0-0.991-0.224-0.831-1.322
				c0.233-1.601,1.734-5.5,2.427-6.473c0.314-0.441,0.737-0.851,1.384-0.851c0.793,0,0.716,0.419,0.529,0.953
				C25.935,8.071,27.548,8.112,27.943,8.081z"/>
			<path id="XMLID_1208_" class="st0" d="M32.689,17.651c1.677,0.02,3.6-0.378,5.182-3.223c0.97-1.744,1.864-4.084,2.261-6.062
				c0.348-1.731,1.145-5.705-3.324-5.758c-3.832-0.046-5.044,2.497-6.231,5.614c-0.68,1.718-1.482,4.343-1.472,6.201
				C29.12,17.011,31.012,17.631,32.689,17.651z M35.323,6.19c0.301-0.464,0.635-0.538,1.018-0.533
				c0.561,0.008,0.619,0.412,0.605,0.761c-0.047,1.193-1.796,5.966-2.419,7.019c-0.269,0.457-0.572,0.834-1.119,0.834
				c-0.476-0.001-0.69-0.34-0.703-0.727C32.671,12.468,34.646,7.068,35.323,6.19z"/>
		</g>
	</g>
</g>
</svg>
