<?xml version="1.0" encoding="utf-8"?>
<!-- Generator: Adobe Illustrator 19.0.0, SVG Export Plug-In . SVG Version: 6.00 Build 0)  -->
<svg version="1.1" id="Layer_1" xmlns="http://www.w3.org/2000/svg" xmlns:xlink="http://www.w3.org/1999/xlink" x="0px" y="0px"
	 viewBox="-284 383.342 42.932 20.192" style="enable-background:new -284 383.342 42.932 20.192;" xml:space="preserve">
<style type="text/css">
	.st0{fill:#010101;}
	.st1{fill:#FCEB00;}
	.st2{fill:#FFFFFF;}
</style>
<g id="XMLID_1214_">
	<g id="XMLID_3_">
		<path id="XMLID_1232_" class="st0" d="M-247.364,384.555c-2.414,0-4.081,0.957-5.211,2.294c-0.192-0.4-0.336-0.576-0.54-0.807
			c-0.924-1.045-2.411-1.533-4.405-1.533c-1.948,0-3.573,0.608-4.7,1.567c-0.586-0.953-1.982-1.584-3.665-1.584
			c-2.2,0-4.597,0.312-6.018,2.603c-0.034-0.826-0.109-1.262-0.572-1.752c-0.564-0.597-1.476-0.752-2.365-0.752
			c-1.619,0-2.837,0.706-3.713,2.146c-1.272,2.032-4.355,8.715-4.285,11.952c0.045,2.091,1.448,3.598,3.959,3.657
			c1.961,0.046,3.5-0.477,4.479-1.466c0.878,0.954,2.218,1.514,3.821,1.514c1.785,0,3.582-0.536,4.643-1.708
			c0.894,1.099,2.301,1.736,4.11,1.728c2.364-0.012,4.441-1.133,5.797-2.852c0.745,2.026,2.633,2.831,4.694,2.831
			c4.518,0,6.503-3.107,8.156-8.02c0.372-1.107,0.869-2.955,0.952-4.507C-242.09,387.286-243.182,384.555-247.364,384.555z
			 M-277.427,396.906c2.337-0.407,2.926,0.439,2.852,1.223c-0.22,2.342-2.37,2.867-4.236,2.822
			c-1.354-0.031-2.571-0.652-2.605-2.224c-0.059-2.749,2.745-9.11,4.065-11.218c0.61-1.001,1.353-1.494,2.537-1.494
			c1.123,0,1.401,0.575,1.384,1.265C-273.474,389.12-276.449,394.719-277.427,396.906z M-269.814,394.746
			c-0.155,0.417-0.448,1.294-0.684,2.224c0.767-0.191,1.342-0.325,2.329-0.301c1.123,0.027,1.84,0.493,1.84,1.424
			c0,2.25-2.488,2.911-4.215,2.911c-1.896,0-3.561-1.079-3.561-3.152c0-2.431,1.317-6.115,2.554-8.569
			c1.519-3.015,3.07-3.416,5.741-3.416c1.175,0,2.527,0.502,2.527,1.61c0,1.538-1.301,2.123-2.592,2.197
			c-0.551,0.031-1.399,0.062-1.908,0.026c0,0-0.429,0.655-0.886,1.821c2.39-0.336,3.404,0.205,3.001,1.589
			C-266.213,394.977-267.832,395.1-269.814,394.746z M-258.059,388.934c-0.646,0-1.069,0.41-1.383,0.851
			c-0.693,0.973-2.194,4.872-2.427,6.473c-0.16,1.098,0.314,1.322,0.831,1.322c0.83,0,1.762-0.879,2.079-2.33
			c0,0-1.581-0.039-1.144-1.441c0.423-1.36,1.226-1.655,2.558-1.71c2.623-0.108,2.365,1.832,2.154,2.864
			c-0.682,3.354-3.069,6.05-6.447,6.05c-2.313,0-3.749-1.279-3.749-3.637c0-1.681,0.834-4.318,1.494-5.862
			c1.406-3.284,2.881-5.584,6.639-5.584c2.254,0,4.033,0.81,3.772,2.922c-0.191,1.55-0.967,2.46-2.376,2.569
			c-0.395,0.031-2.007-0.01-1.472-1.535C-257.343,389.353-257.265,388.934-258.059,388.934z M-243.868,391.708
			c-0.397,1.977-1.291,4.317-2.26,6.062c-1.582,2.845-3.505,3.243-5.182,3.223s-3.57-0.641-3.584-3.229
			c-0.01-1.857,0.792-4.482,1.472-6.201c1.187-3.117,2.399-5.659,6.231-5.614C-242.723,386.003-243.52,389.978-243.868,391.708z
			 M-247.054,389.76c-0.047,1.193-1.796,5.966-2.419,7.019c-0.269,0.457-0.572,0.834-1.119,0.834
			c-0.476-0.001-0.69-0.34-0.703-0.727c-0.034-1.076,1.941-6.476,2.618-7.353c0.301-0.464,0.635-0.538,1.018-0.533
			C-247.098,389.007-247.04,389.411-247.054,389.76z"/>
		<path id="XMLID_1244_" class="st1" d="M-242.134,385.691c-0.984-1.369-2.659-2.288-5.205-2.288c-1.926,0-3.646,0.522-5.02,1.665
			c-1.177-1.165-2.867-1.693-5.139-1.693c-1.779,0-3.271,0.405-4.572,1.186c-0.942-0.749-2.05-1.219-3.815-1.219
			c-1.599,0-3.845,0.083-5.54,1.522c-0.392-0.799-1.187-1.426-3.383-1.426c-2.024,0-3.675,0.956-4.756,2.733
			c-1.446,2.309-4.513,8.976-4.435,12.617c0.059,2.741,2.114,4.63,5.091,4.7c1.789,0.043,3.314-0.34,4.477-1.113
			c1.05,0.758,2.394,1.168,3.887,1.168c1.787,0,3.399-0.47,4.595-1.312c1.083,0.858,2.503,1.322,4.111,1.322
			c2.085,0,4.022-0.718,5.588-2.089c1.069,1.36,2.896,2.07,5.119,2.07c4.159,0,6.318-2.558,7.935-5.887
			c0.602-1.242,1.736-4.35,1.945-6.027C-240.996,389.565-240.748,387.621-242.134,385.691z M-242.227,389.869
			c-0.082,1.552-0.579,3.399-0.952,4.507c-1.653,4.913-3.638,8.02-8.156,8.02c-2.061,0-3.95-0.805-4.694-2.831
			c-1.356,1.719-3.433,2.84-5.797,2.852c-1.809,0.008-3.215-0.63-4.11-1.728c-1.061,1.172-2.858,1.708-4.643,1.708
			c-1.603,0-2.943-0.56-3.821-1.514c-0.98,0.989-2.518,1.512-4.479,1.466c-2.511-0.059-3.913-1.566-3.959-3.657
			c-0.07-3.24,3.013-9.923,4.285-11.954c0.876-1.44,2.094-2.146,3.713-2.146c0.889,0,1.801,0.155,2.365,0.752
			c0.462,0.491,0.538,0.927,0.572,1.752c1.422-2.291,3.818-2.603,6.018-2.603c1.683,0,3.079,0.631,3.665,1.584
			c1.128-0.959,2.752-1.567,4.7-1.567c1.994,0,3.481,0.488,4.405,1.533c0.204,0.231,0.348,0.407,0.54,0.807
			c1.13-1.337,2.797-2.294,5.211-2.294C-243.182,384.555-242.09,387.286-242.227,389.869z"/>
		<g id="XMLID_37_">
			<path id="XMLID_1213_" class="st2" d="M-274.814,386.013c-1.185,0-1.927,0.494-2.537,1.495c-1.32,2.109-4.124,8.469-4.064,11.218
				c0.034,1.572,1.251,2.193,2.605,2.224c1.866,0.045,4.017-0.48,4.236-2.822c0.074-0.784-0.515-1.63-2.852-1.223
				c0.977-2.187,3.953-7.785,3.997-9.627C-273.413,386.588-273.691,386.013-274.814,386.013z"/>
			<path id="XMLID_1212_" class="st2" d="M-265.668,393.11c0.403-1.383-0.611-1.925-3.001-1.589
				c0.457-1.166,0.886-1.821,0.886-1.821c0.509,0.035,1.356,0.005,1.907-0.026c1.291-0.074,2.592-0.659,2.592-2.197
				c0-1.108-1.352-1.61-2.527-1.61c-2.671,0-4.223,0.401-5.741,3.416c-1.237,2.454-2.554,6.138-2.554,8.569
				c0,2.072,1.665,3.152,3.561,3.152c1.727,0,4.215-0.661,4.215-2.911c0-0.931-0.718-1.397-1.841-1.424
				c-0.987-0.024-1.562,0.111-2.329,0.301c0.236-0.93,0.529-1.807,0.684-2.224C-267.832,395.1-266.213,394.977-265.668,393.11z"/>
			<path id="XMLID_1211_" class="st2" d="M-256.057,391.423c1.409-0.109,2.185-1.019,2.376-2.569
				c0.261-2.112-1.518-2.922-3.772-2.922c-3.758,0-5.232,2.3-6.639,5.584c-0.661,1.544-1.494,4.181-1.494,5.862
				c0,2.358,1.435,3.637,3.749,3.637c3.377,0,5.765-2.696,6.446-6.05c0.21-1.032,0.469-2.972-2.154-2.864
				c-1.332,0.054-2.135,0.349-2.558,1.71c-0.437,1.402,1.144,1.441,1.144,1.441c-0.317,1.451-1.249,2.33-2.079,2.33
				c-0.517,0-0.991-0.224-0.831-1.322c0.233-1.601,1.734-5.5,2.427-6.473c0.314-0.441,0.737-0.851,1.384-0.851
				c0.793,0,0.716,0.419,0.529,0.953C-258.065,391.413-256.452,391.454-256.057,391.423z"/>
			<path id="XMLID_1208_" class="st2" d="M-251.311,400.993c1.677,0.02,3.6-0.378,5.182-3.223c0.97-1.744,1.864-4.084,2.261-6.062
				c0.348-1.731,1.145-5.705-3.324-5.758c-3.832-0.046-5.044,2.497-6.231,5.614c-0.68,1.718-1.482,4.343-1.472,6.201
				C-254.88,400.353-252.988,400.973-251.311,400.993z M-248.677,389.532c0.301-0.464,0.635-0.538,1.018-0.533
				c0.561,0.008,0.619,0.412,0.605,0.761c-0.047,1.193-1.796,5.966-2.419,7.019c-0.269,0.457-0.572,0.834-1.119,0.834
				c-0.476-0.001-0.69-0.34-0.703-0.727C-251.329,395.81-249.354,390.41-248.677,389.532z"/>
		</g>
	</g>
</g>
</svg>
