<?xml version="1.0" encoding="utf-8"?>
<!-- Generator: Adobe Illustrator 19.0.0, SVG Export Plug-In . SVG Version: 6.00 Build 0)  -->
<svg version="1.1" id="Layer_1" xmlns="http://www.w3.org/2000/svg" xmlns:xlink="http://www.w3.org/1999/xlink" x="0px" y="0px"
	 viewBox="-284 388.5 42.9 17.2" style="enable-background:new -284 388.5 42.9 17.2;" xml:space="preserve">
<style type="text/css">
	.st0{clip-path:url(#SVGID_2_);}
	.st1{fill:#FFFFFF;}
</style>
<g>
	<g>
		<defs>
			<rect id="SVGID_1_" x="-284" y="388.5" width="42.9" height="17.2"/>
		</defs>
		<clipPath id="SVGID_2_">
			<use xlink:href="#SVGID_1_"  style="overflow:visible;"/>
		</clipPath>
		<g class="st0">
			<path class="st1" d="M-267.6,388.5h-2.3c-0.1,0-0.2,0.1-0.2,0.2v16.8c0,0.1,0.1,0.2,0.2,0.2h2.3c0.1,0,0.2-0.1,0.2-0.2v-16.8
				C-267.4,388.6-267.5,388.5-267.6,388.5z"/>
			<path class="st1" d="M-281.4,388.5h-2.3c-0.1,0-0.2,0.1-0.2,0.2v16.8c0,0.1,0.1,0.2,0.2,0.2h2.3c0.1,0,0.2-0.1,0.2-0.2v-16.8
				C-281.2,388.6-281.3,388.5-281.4,388.5z"/>
			<path class="st1" d="M-257.1,392.9c-0.1,0-0.2,0.1-0.2,0.2v6.4c0,1-0.1,3.5-2.5,3.5h-0.5c-2.5,0-2.4-2.5-2.4-3.5v-6.4
				c0-0.1-0.1-0.2-0.2-0.2h-2.4c-0.1,0-0.2,0.1-0.2,0.2v6.2c0,1.9,0.3,6.4,5.1,6.4h0.7c4.8,0,5.1-4.5,5.1-6.3v-6.3
				c0-0.1-0.1-0.2-0.2-0.2H-257.1z"/>
			<path class="st1" d="M-280.9,398.8c-0.1-0.1-0.1-0.2,0-0.3l6-5.6c0.1-0.1,0.1-0.1,0.2-0.1h2.9c0.2,0,0.3,0.3,0.2,0.4l-5.5,5.4
				c-0.1,0.1-0.1,0.2,0,0.3l5.3,6.4c0.1,0.2,0,0.4-0.2,0.4h-3.1c-0.1,0-0.2-0.1-0.2-0.1l-3.9-4.9l0,0l0,0L-280.9,398.8z"/>
			<path class="st1" d="M-252.9,399.2c0-0.9,0.1-1.7,0.4-2.5c0.3-0.8,0.8-1.5,1.3-2.1c0.6-0.6,1.3-1.1,2-1.4
				c0.8-0.3,1.6-0.5,2.4-0.5c3.6,0,5.8,2.7,5.8,6.7v0.5c0,0.1-0.1,0.2-0.2,0.2h-8.2c-0.2,0-0.3,0.1-0.2,0.3c0.2,0.7,0.4,1.3,1,1.8
				c0.6,0.5,1.5,0.8,2.4,0.8c1.1,0,2.1-0.4,3-1c0.1-0.1,0.2-0.1,0.3,0l1.5,1.5c0.1,0.1,0.1,0.3,0,0.3c-1.9,1.6-3.3,1.9-5,1.9
				c-0.9,0-1.7-0.1-2.4-0.4c-0.8-0.3-1.5-0.8-2.1-1.4c-0.6-0.6-1.1-1.3-1.4-2.1C-252.8,400.9-252.9,400.1-252.9,399.2z
				 M-246.9,395.4L-246.9,395.4c-0.7,0-1.4,0.3-2,0.8c-0.5,0.5-0.8,1-0.9,1.6c0,0.1,0.1,0.3,0.2,0.3h5.3c0.1,0,0.2-0.1,0.2-0.3
				c-0.1-0.3-0.1-0.5-0.3-0.7c-0.2-0.4-0.4-0.7-0.7-0.9c-0.3-0.3-0.6-0.5-0.9-0.6C-246.2,395.4-246.5,395.4-246.9,395.4
				L-246.9,395.4z"/>
		</g>
	</g>
</g>
</svg>
