<?xml version="1.0" encoding="utf-8"?>
<!-- Generator: Adobe Illustrator 19.0.0, SVG Export Plug-In . SVG Version: 6.00 Build 0)  -->
<svg version="1.1" id="Layer_1" xmlns="http://www.w3.org/2000/svg" xmlns:xlink="http://www.w3.org/1999/xlink" x="0px" y="0px"
	 viewBox="-284 388.8 40 26.2" style="enable-background:new -284 388.8 40 26.2;" xml:space="preserve">
<style type="text/css">
	.st0{fill:#CECEF8;}
	.st1{clip-path:url(#SVGID_2_);}
	.st2{fill:#FFFFFF;}
</style>
<g>
	<path class="st0" d="M-283.9,414.9v-7.2h1.3v6h2.9v1.2H-283.9z"/>
	<path class="st0" d="M-278.3,409.1c-0.2,0-0.4-0.1-0.5-0.2c-0.1-0.1-0.2-0.3-0.2-0.5c0-0.2,0.1-0.4,0.2-0.5
		c0.1-0.1,0.3-0.2,0.5-0.2c0.2,0,0.4,0.1,0.5,0.2c0.1,0.1,0.2,0.3,0.2,0.5c0,0.2-0.1,0.4-0.2,0.5
		C-277.9,409-278.1,409.1-278.3,409.1z M-278.9,414.9v-5.2h1.2v5.2H-278.9z"/>
	<path class="st0" d="M-277,414l0.8-0.7c0.1,0.2,0.3,0.3,0.5,0.5c0.2,0.1,0.5,0.2,0.8,0.2c0.2,0,0.3,0,0.5-0.1
		c0.2,0,0.3-0.1,0.3-0.2c0.1-0.1,0.1-0.2,0.1-0.3c0-0.1-0.1-0.2-0.2-0.3c-0.1-0.1-0.3-0.2-0.7-0.3c-0.3-0.1-0.5-0.2-0.6-0.2
		c-0.3-0.1-0.6-0.2-0.7-0.4c-0.2-0.1-0.3-0.3-0.4-0.5c-0.1-0.2-0.1-0.4-0.1-0.6c0-0.3,0.1-0.6,0.2-0.8c0.1-0.2,0.4-0.4,0.6-0.6
		c0.3-0.1,0.6-0.2,1-0.2c0.4,0,0.7,0.1,1,0.2c0.3,0.1,0.5,0.3,0.7,0.6l-0.7,0.7c-0.2-0.3-0.6-0.4-1-0.4c-0.2,0-0.3,0-0.5,0.1
		c-0.1,0.1-0.2,0.2-0.2,0.3c0,0.1,0,0.2,0.1,0.3c0.1,0.1,0.3,0.2,0.6,0.3c0.3,0.1,0.5,0.2,0.6,0.2c0.5,0.2,0.8,0.4,1.1,0.6
		c0.2,0.2,0.3,0.6,0.3,0.9c0,0.3-0.1,0.6-0.3,0.9c-0.2,0.2-0.4,0.4-0.7,0.6s-0.7,0.2-1.1,0.2c-0.5,0-1-0.1-1.3-0.3
		C-276.5,414.5-276.8,414.3-277,414z"/>
	<path class="st0" d="M-271.6,414.9v-4.1h-0.7v-1.1h0.7v-2h1.2v2h1.1v1.1h-1.1v4.1H-271.6z"/>
	<path class="st0" d="M-263.9,414.9l-3-7.2h1.4l2.1,5.3l2.1-5.3h1.4l-3,7.2H-263.9z"/>
	<path class="st0" d="M-258.5,409.1c-0.2,0-0.4-0.1-0.5-0.2c-0.1-0.1-0.2-0.3-0.2-0.5c0-0.2,0.1-0.4,0.2-0.5
		c0.1-0.1,0.3-0.2,0.5-0.2c0.2,0,0.4,0.1,0.5,0.2c0.1,0.1,0.2,0.3,0.2,0.5c0,0.2-0.1,0.4-0.2,0.5
		C-258.1,409-258.3,409.1-258.5,409.1z M-259.1,414.9v-5.2h1.2v5.2H-259.1z"/>
	<path class="st0" d="M-257,412.3L-257,412.3c0-0.4,0.1-0.8,0.2-1.2c0.1-0.3,0.3-0.6,0.6-0.9c0.2-0.2,0.5-0.4,0.9-0.6
		c0.3-0.1,0.7-0.2,1.1-0.2c0.4,0,0.7,0.1,1,0.2c0.3,0.1,0.6,0.3,0.8,0.6c0.2,0.2,0.4,0.5,0.5,0.8c0.1,0.3,0.2,0.7,0.2,1l0,0.4h-4
		c0,0.4,0.2,0.7,0.5,1c0.3,0.2,0.7,0.4,1.1,0.4c0.2,0,0.5,0,0.7-0.1c0.2-0.1,0.5-0.2,0.7-0.5l0.7,0.7c-0.6,0.6-1.3,0.9-2.2,0.9
		c-0.4,0-0.8-0.1-1.1-0.2c-0.3-0.1-0.6-0.3-0.9-0.5c-0.2-0.2-0.4-0.5-0.6-0.9C-257,413.1-257,412.7-257,412.3z M-255.8,411.7h2.8
		c0-0.3-0.1-0.6-0.4-0.8c-0.3-0.2-0.6-0.3-0.9-0.3c-0.2,0-0.4,0-0.6,0.1c-0.2,0.1-0.4,0.2-0.6,0.4
		C-255.7,411.3-255.7,411.5-255.8,411.7z"/>
	<path class="st0" d="M-249.8,414.9l-1.7-5.2h1.2l1.1,3.2l1.1-3.2h0.9l1.1,3.2l1.1-3.2h1.2l-1.7,5.2h-1l-1.1-3.3l-1.1,3.3H-249.8z"
		/>
</g>
<g>
	<g>
		<defs>
			<rect id="SVGID_1_" x="-284" y="388.8" width="40" height="16"/>
		</defs>
		<clipPath id="SVGID_2_">
			<use xlink:href="#SVGID_1_"  style="overflow:visible;"/>
		</clipPath>
		<g class="st1">
			<path class="st2" d="M-268.7,388.8h-2.1c-0.1,0-0.2,0.1-0.2,0.2v15.7c0,0.1,0.1,0.2,0.2,0.2h2.1c0.1,0,0.2-0.1,0.2-0.2V389
				C-268.5,388.9-268.6,388.8-268.7,388.8z"/>
			<path class="st2" d="M-281.6,388.8h-2.1c-0.1,0-0.2,0.1-0.2,0.2v15.7c0,0.1,0.1,0.2,0.2,0.2h2.1c0.1,0,0.2-0.1,0.2-0.2V389
				C-281.4,388.9-281.5,388.8-281.6,388.8z"/>
			<path class="st2" d="M-259,392.9c-0.1,0-0.2,0.1-0.2,0.2v6c0,0.9,0,3.2-2.3,3.2h-0.4c-2.3,0-2.2-2.3-2.2-3.2v-6
				c0-0.1-0.1-0.2-0.2-0.2h-2.2c-0.1,0-0.2,0.1-0.2,0.2v5.8c0,1.8,0.3,5.9,4.8,5.9h0.7c4.5,0,4.8-4.2,4.8-5.9v-5.8
				c0-0.1-0.1-0.2-0.2-0.2H-259z"/>
			<path class="st2" d="M-281.1,398.4c0-0.1,0-0.2,0-0.3l5.6-5.2c0,0,0.1,0,0.1,0h2.7c0.2,0,0.3,0.2,0.1,0.3l-5.1,5
				c-0.1,0.1-0.1,0.2,0,0.3l4.9,6c0.1,0.1,0,0.3-0.1,0.3h-2.9c0,0-0.1,0-0.1-0.1l-3.6-4.5l0,0l0,0L-281.1,398.4z"/>
			<path class="st2" d="M-255,398.8c0-0.8,0.1-1.5,0.4-2.3c0.3-0.7,0.7-1.4,1.2-2c0.5-0.6,1.2-1,1.8-1.3c0.7-0.3,1.4-0.4,2.2-0.4
				c3.3,0,5.4,2.5,5.4,6.3v0.5c0,0.1-0.1,0.2-0.2,0.2h-7.6c-0.1,0-0.2,0.1-0.2,0.2c0.1,0.7,0.4,1.2,0.9,1.6c0.6,0.5,1.4,0.7,2.2,0.7
				c1,0,2-0.3,2.8-0.9c0.1,0,0.2,0,0.3,0l1.4,1.4c0.1,0.1,0.1,0.2,0,0.3c-1.8,1.5-3.1,1.7-4.7,1.7c-0.8,0-1.5-0.1-2.2-0.4
				c-0.7-0.3-1.4-0.7-1.9-1.3c-0.6-0.6-1-1.2-1.3-2C-254.9,400.4-255,399.7-255,398.8z M-249.4,395.3L-249.4,395.3
				c-0.7,0-1.3,0.2-1.8,0.7c-0.5,0.4-0.7,0.9-0.8,1.4c0,0.1,0.1,0.2,0.2,0.2h4.9c0.1,0,0.2-0.1,0.2-0.2c0-0.2-0.1-0.4-0.2-0.7
				c-0.1-0.3-0.3-0.6-0.6-0.8c-0.2-0.2-0.6-0.4-0.8-0.5C-248.8,395.3-249.1,395.2-249.4,395.3L-249.4,395.3z"/>
		</g>
	</g>
</g>
</svg>
