<?xml version="1.0" encoding="utf-8"?>
<!-- Generator: Adobe Illustrator 19.0.0, SVG Export Plug-In . SVG Version: 6.00 Build 0)  -->
<svg version="1.1" id="Layer_1" xmlns="http://www.w3.org/2000/svg" xmlns:xlink="http://www.w3.org/1999/xlink" x="0px" y="0px"
	 viewBox="-284 388.8 40 26.6" style="enable-background:new -284 388.8 40 26.6;" xml:space="preserve">
<style type="text/css">
	.st0{clip-path:url(#SVGID_2_);}
	.st1{fill:#FFFFFF;}
	.st2{fill:#D8C9F3;}
</style>
<g>
	<g>
		<defs>
			<rect id="SVGID_1_" x="-284" y="388.8" width="40" height="16"/>
		</defs>
		<clipPath id="SVGID_2_">
			<use xlink:href="#SVGID_1_"  style="overflow:visible;"/>
		</clipPath>
		<g class="st0">
			<path class="st1" d="M-268.7,388.8h-2.1c-0.1,0-0.2,0.1-0.2,0.2v15.7c0,0.1,0.1,0.2,0.2,0.2h2.1c0.1,0,0.2-0.1,0.2-0.2V389
				C-268.5,388.9-268.6,388.8-268.7,388.8z"/>
			<path class="st1" d="M-281.6,388.8h-2.1c-0.1,0-0.2,0.1-0.2,0.2v15.7c0,0.1,0.1,0.2,0.2,0.2h2.1c0.1,0,0.2-0.1,0.2-0.2V389
				C-281.4,388.9-281.5,388.8-281.6,388.8z"/>
			<path class="st1" d="M-259,392.9c-0.1,0-0.2,0.1-0.2,0.2v6c0,0.9,0,3.2-2.3,3.2h-0.4c-2.3,0-2.2-2.3-2.2-3.2v-6
				c0-0.1-0.1-0.2-0.2-0.2h-2.2c-0.1,0-0.2,0.1-0.2,0.2v5.8c0,1.8,0.3,5.9,4.8,5.9h0.7c4.5,0,4.8-4.2,4.8-5.9v-5.8
				c0-0.1-0.1-0.2-0.2-0.2H-259z"/>
			<path class="st1" d="M-281.1,398.4c0-0.1,0-0.2,0-0.3l5.6-5.2c0,0,0.1,0,0.1,0h2.7c0.2,0,0.3,0.2,0.1,0.3l-5.1,5
				c-0.1,0.1-0.1,0.2,0,0.3l4.9,6c0.1,0.1,0,0.3-0.1,0.3h-2.9c0,0-0.1,0-0.1-0.1l-3.6-4.5l0,0l0,0L-281.1,398.4z"/>
			<path class="st1" d="M-255,398.8c0-0.8,0.1-1.5,0.4-2.3c0.3-0.7,0.7-1.4,1.2-2c0.5-0.6,1.2-1,1.8-1.3c0.7-0.3,1.4-0.4,2.2-0.4
				c3.3,0,5.4,2.5,5.4,6.3v0.5c0,0.1-0.1,0.2-0.2,0.2h-7.6c-0.1,0-0.2,0.1-0.2,0.2c0.1,0.7,0.4,1.2,0.9,1.6c0.6,0.5,1.4,0.7,2.2,0.7
				c1,0,2-0.3,2.8-0.9c0.1,0,0.2,0,0.3,0l1.4,1.4c0.1,0.1,0.1,0.2,0,0.3c-1.8,1.5-3.1,1.7-4.7,1.7c-0.8,0-1.5-0.1-2.2-0.4
				c-0.7-0.3-1.4-0.7-1.9-1.3c-0.6-0.6-1-1.2-1.3-2C-254.9,400.4-255,399.7-255,398.8z M-249.4,395.3L-249.4,395.3
				c-0.7,0-1.3,0.2-1.8,0.7c-0.5,0.4-0.7,0.9-0.8,1.4c0,0.1,0.1,0.2,0.2,0.2h4.9c0.1,0,0.2-0.1,0.2-0.2c0-0.2-0.1-0.4-0.2-0.7
				c-0.1-0.3-0.3-0.6-0.6-0.8c-0.2-0.2-0.6-0.4-0.8-0.5C-248.8,395.3-249.1,395.2-249.4,395.3L-249.4,395.3z"/>
		</g>
	</g>
</g>
<g>
	<path class="st2" d="M-284,413.7v-6h2.2c0.5,0,0.9,0.1,1.3,0.2c0.4,0.1,0.7,0.4,1,0.6s0.5,0.6,0.6,1c0.1,0.4,0.2,0.8,0.2,1.2
		c0,0.4-0.1,0.8-0.2,1.2c-0.1,0.4-0.3,0.7-0.6,1c-0.3,0.3-0.6,0.5-1,0.6c-0.4,0.1-0.8,0.2-1.3,0.2H-284z M-282.9,412.8h1
		c0.5,0,0.9-0.1,1.2-0.2c0.3-0.2,0.6-0.4,0.7-0.7c0.2-0.3,0.3-0.7,0.3-1.1c0-0.5-0.1-0.8-0.3-1.1s-0.4-0.5-0.7-0.7
		c-0.3-0.2-0.7-0.2-1.2-0.2h-1V412.8z"/>
	<path class="st2" d="M-278,413.7v-4.4h1v0.6c0.1-0.2,0.3-0.4,0.5-0.5c0.2-0.1,0.5-0.2,0.8-0.2c0.1,0,0.2,0,0.3,0v1
		c-0.1,0-0.3,0-0.4,0c-0.4,0-0.6,0.1-0.9,0.3c-0.2,0.2-0.3,0.5-0.3,0.9v2.3H-278z"/>
	<path class="st2" d="M-275.2,411.6c0-0.3,0.1-0.6,0.2-0.9c0.1-0.3,0.3-0.5,0.5-0.7c0.2-0.2,0.5-0.4,0.8-0.5
		c0.3-0.1,0.6-0.2,0.9-0.2c0.1,0,0.3,0,0.5,0.1c0.2,0,0.4,0.1,0.6,0.2c0.2,0.1,0.4,0.3,0.6,0.4c0.2,0.2,0.3,0.4,0.5,0.7
		c0.1,0.3,0.2,0.6,0.2,0.9c0,0.2,0,0.3-0.1,0.5c0,0.2-0.1,0.4-0.2,0.6c-0.1,0.2-0.3,0.4-0.5,0.6s-0.4,0.3-0.7,0.4
		c-0.3,0.1-0.6,0.2-0.9,0.2c-0.3,0-0.6-0.1-0.9-0.2c-0.3-0.1-0.5-0.3-0.8-0.5s-0.4-0.5-0.5-0.7
		C-275.1,412.2-275.2,411.9-275.2,411.6z M-274.1,411.6c0,0.4,0.1,0.7,0.4,1c0.3,0.3,0.6,0.4,1,0.4c0.1,0,0.3,0,0.4-0.1
		c0.1,0,0.3-0.1,0.4-0.2c0.1-0.1,0.3-0.3,0.3-0.4c0.1-0.2,0.1-0.4,0.1-0.6c0-0.2,0-0.4-0.1-0.6c-0.1-0.2-0.2-0.4-0.5-0.5
		c-0.2-0.2-0.5-0.2-0.8-0.2c-0.4,0-0.7,0.1-1,0.4C-274,410.8-274.1,411.2-274.1,411.6z"/>
	<path class="st2" d="M-269.8,415.4v-6h1v0.6c0.1-0.2,0.2-0.4,0.5-0.5c0.3-0.1,0.6-0.2,0.9-0.2c0.3,0,0.6,0.1,0.9,0.2
		c0.3,0.1,0.5,0.3,0.7,0.5c0.2,0.2,0.4,0.5,0.5,0.7c0.1,0.3,0.2,0.6,0.2,0.9c0,0.3-0.1,0.6-0.2,0.9c-0.1,0.3-0.3,0.5-0.5,0.7
		c-0.2,0.2-0.4,0.4-0.7,0.5c-0.3,0.1-0.6,0.2-0.9,0.2c-0.4,0-0.7-0.1-0.9-0.2c-0.3-0.1-0.4-0.3-0.5-0.5v2.3H-269.8z M-268.8,411.6
		c0,0.1,0,0.3,0.1,0.4c0,0.2,0.1,0.3,0.2,0.4c0.1,0.1,0.2,0.2,0.4,0.3s0.4,0.1,0.6,0.1c0.1,0,0.3,0,0.4-0.1c0.1,0,0.3-0.1,0.4-0.2
		c0.1-0.1,0.2-0.2,0.3-0.4c0.1-0.2,0.1-0.4,0.1-0.6c0-0.1,0-0.3-0.1-0.4c0-0.1-0.1-0.3-0.2-0.4c-0.1-0.1-0.2-0.2-0.4-0.3
		c-0.2-0.1-0.4-0.1-0.6-0.1c-0.1,0-0.3,0-0.4,0.1c-0.2,0-0.3,0.1-0.4,0.2c-0.1,0.1-0.2,0.2-0.3,0.4
		C-268.8,411.1-268.8,411.3-268.8,411.6z"/>
	<path class="st2" d="M-264.7,411.6c0-0.3,0.1-0.6,0.2-0.9c0.1-0.3,0.3-0.5,0.5-0.7c0.2-0.2,0.4-0.4,0.7-0.5
		c0.3-0.1,0.6-0.2,0.9-0.2c0.4,0,0.7,0.1,0.9,0.2c0.3,0.1,0.4,0.3,0.5,0.5v-2.3h1v6h-1v-0.6c-0.1,0.2-0.2,0.4-0.5,0.5
		c-0.3,0.1-0.6,0.2-0.9,0.2c-0.3,0-0.6-0.1-0.9-0.2c-0.3-0.1-0.5-0.3-0.7-0.5c-0.2-0.2-0.4-0.5-0.5-0.7
		C-264.7,412.2-264.7,411.9-264.7,411.6z M-263.7,411.6c0,0.1,0,0.3,0.1,0.4c0,0.2,0.1,0.3,0.2,0.4c0.1,0.1,0.2,0.2,0.4,0.3
		c0.2,0.1,0.4,0.1,0.6,0.1c0.1,0,0.3,0,0.4-0.1c0.2,0,0.3-0.1,0.4-0.2c0.1-0.1,0.2-0.2,0.3-0.4s0.1-0.4,0.1-0.6c0-0.1,0-0.3-0.1-0.4
		c0-0.1-0.1-0.3-0.2-0.4c-0.1-0.1-0.2-0.2-0.4-0.3c-0.2-0.1-0.4-0.1-0.6-0.1c-0.1,0-0.3,0-0.4,0.1c-0.1,0-0.3,0.1-0.4,0.2
		c-0.1,0.1-0.2,0.2-0.3,0.4C-263.6,411.1-263.7,411.3-263.7,411.6z"/>
	<path class="st2" d="M-259.5,411.6c0-0.3,0.1-0.6,0.2-0.9c0.1-0.3,0.3-0.5,0.5-0.7c0.2-0.2,0.5-0.4,0.8-0.5
		c0.3-0.1,0.6-0.2,0.9-0.2c0.1,0,0.3,0,0.5,0.1c0.2,0,0.4,0.1,0.6,0.2c0.2,0.1,0.4,0.3,0.6,0.4c0.2,0.2,0.3,0.4,0.5,0.7
		c0.1,0.3,0.2,0.6,0.2,0.9c0,0.2,0,0.3-0.1,0.5c0,0.2-0.1,0.4-0.2,0.6c-0.1,0.2-0.3,0.4-0.5,0.6c-0.2,0.2-0.4,0.3-0.7,0.4
		c-0.3,0.1-0.6,0.2-0.9,0.2c-0.3,0-0.6-0.1-0.9-0.2c-0.3-0.1-0.5-0.3-0.8-0.5c-0.2-0.2-0.4-0.5-0.5-0.7
		C-259.4,412.2-259.5,411.9-259.5,411.6z M-258.5,411.6c0,0.4,0.1,0.7,0.4,1c0.3,0.3,0.6,0.4,1,0.4c0.1,0,0.3,0,0.4-0.1
		c0.2,0,0.3-0.1,0.4-0.2c0.1-0.1,0.3-0.3,0.3-0.4c0.1-0.2,0.1-0.4,0.1-0.6c0-0.2,0-0.4-0.1-0.6c-0.1-0.2-0.2-0.4-0.5-0.5
		c-0.2-0.2-0.5-0.2-0.8-0.2c-0.4,0-0.7,0.1-1,0.4C-258.3,410.8-258.5,411.2-258.5,411.6z"/>
	<path class="st2" d="M-253.3,413.7l-1.5-4.4h1l0.9,2.7l0.9-2.7h0.8l0.9,2.7l0.9-2.7h1l-1.5,4.4h-0.8l-0.9-2.8l-0.9,2.8H-253.3z"/>
	<path class="st2" d="M-248,413.7v-4.4h1v0.6c0.1-0.2,0.3-0.4,0.5-0.5c0.2-0.1,0.5-0.2,0.8-0.2c0.5,0,0.9,0.2,1.2,0.5
		c0.3,0.3,0.4,0.7,0.4,1.3v2.7h-1v-2.5c0-0.3-0.1-0.5-0.2-0.7c-0.2-0.2-0.4-0.3-0.7-0.3c-0.1,0-0.3,0-0.4,0.1
		c-0.2,0.1-0.3,0.2-0.4,0.3c-0.1,0.2-0.2,0.4-0.2,0.6v2.5H-248z"/>
</g>
</svg>
